<?xml version="1.0" encoding="utf-8"?>
<!-- Generator: Adobe Illustrator 21.0.0, SVG Export Plug-In . SVG Version: 6.00 Build 0)  -->
<svg version="1.1" id="Calque_1" xmlns="http://www.w3.org/2000/svg" xmlns:xlink="http://www.w3.org/1999/xlink" x="0px" y="0px"
	 viewBox="0 0 150.5 174" style="enable-background:new 0 0 150.5 174;" xml:space="preserve">
<style type="text/css">
	.st0{fill-rule:evenodd;clip-rule:evenodd;fill:#F6A200;}
	.st1{fill:#F6A200;}
	.st2{fill:#FFFFFF;}
	.st3{fill:#13110C;}
	.st4{fill:#14120F;}
	.st5{fill:#F6F6F7;}
	.st6{fill:#294C9C;}
	.st7{fill:#D4111C;}
	.st8{fill:#443D90;}
	.st9{fill:#FAFAFB;}
	.st10{fill:#E94350;}
	.st11{fill:#76AB2C;}
	.st12{fill:#FFE350;}
	.st13{fill:#CA3A42;}
	.st14{fill:#FFD546;}
	.st15{fill:#FAB73B;}
	.st16{fill:#FAB638;}
	.st17{fill:#535FA6;}
	.st18{fill:#F3A8CA;}
	.st19{fill:#4C4857;}
</style>
<path class="st0" d="M-1686.5-648c-1.9-1.1-1.9-2.8-1.4-4.6c8.1-24.6,19-47.9,34.2-69c11.5-16.1,25.1-30.4,40.1-43.5
	c15.6-13.6,32.7-24.8,51.2-33.7c17.5-8.4,35.8-14.7,55.1-18.2c9.3-1.7,18.5-2.9,27.9-4.1c11.4-1.4,22.8-1.2,34.1-0.6
	c17.5,0.9,34.9,4,51.8,9c14.4,4.3,28.4,9.6,41.8,16.6c16.4,8.6,31.8,18.7,45.9,30.8c17.6,15.2,32.9,32.2,45.6,51.7
	c13.6,21,24,43.3,30.3,67.6c3.9,14.9,6.6,29.9,8.1,45.3c1.2,11.9,1.4,23.8,0.5,35.6c-2.1,28.5-8.4,56-20.1,82.3
	c-8.6,19.3-19.6,37-32.6,53.7c-8.4,10.7-17.9,20.3-27.8,29.4c-13,11.8-27.4,21.9-42.9,30.4c-14,7.7-28.6,14.1-43.9,18.7
	c-13.6,4.1-27.3,7.1-41.4,9c-14.4,2-28.8,2.2-43.2,1.6c-10.5-0.4-20.9-2.5-31.4-3.8c-1.5-0.2-1.5-1-1.4-2c0.1-1.6,1.4-1.2,2.2-1
	c4.5,0.8,9.1,1.6,13.7,2.1c6.2,0.7,12.4,1.9,18.7,1.9c8.2,0,16.3,0.2,24.5-0.1c16.1-0.6,32-3.2,47.5-7.3c16-4.2,31.6-10.1,46.3-17.7
	c16.2-8.4,31.3-18.4,45.1-30.4c18.5-16,34.6-34.1,47.7-54.8c12.8-20.3,22.5-42,28.4-65.4c3.4-13.4,5.7-26.9,7.1-40.7
	c1.4-13.2,1.6-26.5,0.5-39.6c-2.2-27.8-8.5-54.7-20.2-80.2c-8.5-18.5-19-35.6-31.6-51.6c-8.2-10.4-17.4-19.9-27.1-28.7
	c-13.4-12.2-28.2-22.6-44.1-31.4c-19.1-10.6-39.5-18-60.6-23.1c-9.8-2.4-20.1-3.5-30.3-4.4c-12.9-1.2-25.8-1.3-38.6-0.5
	c-20.3,1.3-40.1,5.5-59.5,12.2c-24.2,8.4-46.7,20.2-66.7,36.1c-23.2,18.4-42.9,40.1-58.3,65.7c-10.7,17.7-18.3,36.5-24.9,55.9
	C-1686.2-648.5-1686.3-648.3-1686.5-648z"/>
<g>
	<g>
		<path class="st1" d="M6.2-398.8h138.1c3.5,0,6.2-2.7,6.2-6.2v-162.7c0-3.5-2.7-6.2-6.2-6.2H40.7c-0.5,0-1.1,0-1.5,0.2
			c-0.1,0-0.3,0.2-0.3,0.2c-0.5,0.2-0.8,0.3-1.2,0.5c-0.2,0.2-0.3,0.2-0.5,0.3c-0.5,0.3-0.9,0.6-1.2,1.1L1.5-531.1
			c-0.5,0.5-0.8,1.1-1.1,1.7c-0.2,0.2-0.2,0.5-0.2,0.6c-0.2,0.5-0.2,0.9-0.3,1.4c0,0.2,0,0.2,0,0.3v122C0-401.5,2.9-398.8,6.2-398.8
			L6.2-398.8z M34.5-550.8v17.8H19.5L34.5-550.8z M12.4-520.8h28.4c3.5,0,6.2-2.7,6.2-6.2v-34.5h91.2v150.4H12.4V-520.8L12.4-520.8z
			"/>
		<path class="st1" d="M119.7-507.4h-89c-3.5,0-6.2,2.7-6.2,6.2c0,3.5,2.7,6.2,6.2,6.2h89c3.5,0,6.2-2.7,6.2-6.2
			C125.9-504.7,123.2-507.4,119.7-507.4z"/>
		<path class="st1" d="M119.7-477.5h-89c-3.5,0-6.2,2.7-6.2,6.2c0,3.5,2.7,6.2,6.2,6.2h89c3.5,0,6.2-2.7,6.2-6.2
			C125.9-474.7,123.2-477.5,119.7-477.5z"/>
	</g>
</g>
<g>
	<path class="st1" d="M471.6-458.6c17.9,0,32.5-14.6,32.5-32.5c0-17.9-14.6-32.5-32.5-32.5c-17.9,0-32.5,14.6-32.5,32.5
		C439.1-473.2,453.7-458.6,471.6-458.6z"/>
	<path class="st1" d="M515.3-442.8C515.3-442.8,515.2-442.8,515.3-442.8c-4.3-1.1-17.3-2.9-17.3-2.9c-1.5-0.5-3,0.3-3.6,1.8
		l-19.5,53.6c-1.1,3.1-5.5,3.1-6.6,0l-19.5-53.6c-0.4-1.2-1.5-1.9-2.7-1.9c-0.3,0-13.6,1.9-18.1,3c-12.1,3-19.8,14.9-19.8,27.4v44.6
		c0,6.7,5.4,12.1,12.1,12.1h102.6c6.7,0,12.1-5.4,12.1-12.1v-44.7C535-428,527.1-439,515.3-442.8L515.3-442.8z"/>
	<path class="st1" d="M479-446.7c-0.8-0.8-1.9-1.3-3.1-1.3h-8.6c-1.2,0-2.3,0.4-3.1,1.3c-1.2,1.3-1.4,3.2-0.5,4.7l4.6,6.9l-2.2,18.1
		l4.2,11.3c0.4,1.1,2,1.1,2.4,0l4.2-11.3l-2.2-18.1l4.6-6.9C480.4-443.5,480.2-445.4,479-446.7z"/>
</g>
<path class="st1" d="M570.5-589.6c-2-0.7-4.2,0.4-4.8,2.5c-0.7,2,0.4,4.2,2.4,4.8c0,0,0,0,0,0c12.6,4.1,22.6,12.8,28.3,24.5
	c5.6,11.4,6.3,24.2,2,36.2c-5.4,15-16.8,26.2-31.5,30.7c-0.2,0-0.3,0.1-0.5,0.2l-0.6,0.2c-0.2,0-0.3,0.1-0.5,0.1l-42.1,12l4.6-13.9
	c0.6-1.6-0.1-3.5-1.5-4.4c-18.1-12-25.9-34.7-19.1-55.2c5.3-16,18.4-27.8,34.9-31.6c2.1-0.5,3.4-2.5,2.9-4.6
	c-0.5-2.1-2.5-3.4-4.6-2.9c-19.1,4.4-34.3,18.1-40.5,36.6c-7.6,22.9,0.4,48.1,19.7,62.4l-6,18.1c-0.5,1.4-0.1,2.8,0.9,3.9
	c0.4,0.5,1,0.8,1.6,1c0.7,0.2,1.5,0.3,2.3,0.1l49.1-14c0.2-0.1,0.4-0.1,0.6-0.2l1.2-0.3c0.2-0.1,0.4-0.2,0.7-0.3
	c16.7-5.4,29.7-18.2,35.8-35.3c5-13.9,4.1-28.9-2.3-42.2C596.7-574.7,585.1-584.8,570.5-589.6z"/>
<path class="st1" d="M579.2-546.7h-20.9l-3.4-14.8h-28.7c-1.9,0-3.4,1.5-3.4,3.4v29.5c0,1.9,1.5,3.4,3.4,3.4h20.9l3.4,14.8h28.7
	c1.9,0,3.4-1.5,3.4-3.4v-29.5C582.6-545.2,581.1-546.7,579.2-546.7z M526.8-529.1v-28.4h25l6.5,28.4H526.8z M551.2-525.2h7.4l-5.5,8
	L551.2-525.2z M578.7-514.4h-22.9l4.2-6.1l0.6,1c2.6-1.6,4.6-3.4,6.2-5.3l5,5.1l2.1-2l-5.3-5.4c2.2-3.3,3.3-6.3,3.7-7.9h3.4v-2.9
	h-7.1v-1.7h-2.9v1.7h-5.3l-1.1-4.9h19.4L578.7-514.4L578.7-514.4z M563.3-525.2L563.3-525.2l-1-4.2l2.5,2.6
	c-0.5,0.6-1.1,1.2-1.7,1.9L563.3-525.2L563.3-525.2z M563.3-532.6l-1.4,1.3L561-535h8.3c-0.4,1.4-1.3,3.5-2.8,5.8L563.3-532.6z"/>
<path class="st1" d="M534-533.5c0.6,0,1.2-0.4,1.4-0.9l2-4.8h7.6l2.1,4.9c0.3,0.8,1.2,1.1,2,0.8c0.8-0.3,1.1-1.2,0.8-2l-2.5-5.8
	c0,0,0,0,0,0l-4.9-11.4c-0.2-0.6-0.8-0.9-1.4-0.9c0,0,0,0,0,0c-0.6,0-1.2,0.4-1.4,0.9l-4.7,11.4c0,0,0,0,0,0l-2.4,5.8"/>
<polygon class="st2" points="541.1,-548.3 543.7,-542.3 538.6,-542.3 "/>
<g>
	<g>
		<path class="st1" d="M-282.2-512.3c-10.8-10.8-25.2-16.9-40.5-17.1c-0.3,0-0.5,0-0.8,0c-0.3,0-0.5,0-0.8,0
			c-15.3,0.2-29.6,6.2-40.5,17.1c-11,11-17.1,25.7-17.1,41.3c0,15.6,6.1,30.2,17.1,41.3c10.8,10.8,25.2,16.9,40.5,17.1
			c0.3,0,0.5,0,0.8,0c0.3,0,0.5,0,0.8,0c15.3-0.2,29.6-6.2,40.5-17.1c11-11,17.1-25.7,17.1-41.3
			C-265.1-486.6-271.2-501.3-282.2-512.3z M-359.9-507.4c6.2-6.2,13.7-10.6,21.9-13c-1.8,2.1-3.6,4.6-5.3,7.3
			c-2.1,3.5-4,7.2-5.5,11.2h-15.8C-363.2-503.9-361.6-505.7-359.9-507.4z M-369-495h17.9c-1.9,6.5-3,13.4-3.2,20.5h-20.4
			C-374.3-481.8-372.3-488.7-369-495z M-369-447.1c-3.3-6.3-5.3-13.3-5.8-20.5h20.4c0.3,7.1,1.4,14,3.2,20.5H-369z M-359.9-434.7
			c-1.7-1.7-3.3-3.5-4.7-5.4h15.8c1.5,4,3.4,7.7,5.5,11.2c1.7,2.7,3.5,5.2,5.3,7.3C-346.2-424.1-353.7-428.5-359.9-434.7z M-327-421
			c-2.9-1.9-6.8-5.7-10.4-11.6c-1.5-2.4-2.8-4.9-3.9-7.5h14.3L-327-421L-327-421z M-327-447.1h-16.9c-2-6.4-3.2-13.4-3.5-20.5h20.5
			V-447.1L-327-447.1z M-327-474.5h-20.5c0.3-7.1,1.5-14.1,3.5-20.5h16.9V-474.5L-327-474.5z M-327-502h-14.3
			c1.2-2.6,2.5-5.2,3.9-7.5c3.6-5.9,7.5-9.7,10.4-11.6V-502L-327-502z M-278-495c3.3,6.3,5.3,13.3,5.8,20.5h-20.4
			c-0.3-7.1-1.4-14-3.2-20.5H-278z M-287.1-507.4c1.7,1.7,3.3,3.5,4.7,5.4h-15.8c-1.5-4-3.4-7.7-5.5-11.2c-1.7-2.7-3.5-5.2-5.3-7.3
			C-300.8-518-293.3-513.6-287.1-507.4z M-320-521.1c2.9,1.9,6.8,5.7,10.4,11.6c1.5,2.4,2.8,4.9,3.9,7.5H-320V-521.1L-320-521.1z
			 M-320-495h16.9c2,6.4,3.2,13.4,3.5,20.5H-320V-495z M-299.6-467.6c-0.3,7.1-1.5,14.1-3.5,20.5H-320v-20.5H-299.6z M-320-421
			v-19.1h14.3c-1.2,2.6-2.5,5.2-3.9,7.5C-313.3-426.7-317.1-422.9-320-421z M-287.1-434.7c-6.2,6.2-13.7,10.6-21.9,13
			c1.8-2.1,3.6-4.6,5.3-7.3c2.1-3.5,4-7.2,5.5-11.2h15.8C-283.8-438.2-285.4-436.4-287.1-434.7z M-278-447.1h-17.9
			c1.9-6.5,3-13.4,3.2-20.5h20.4C-272.7-460.3-274.7-453.4-278-447.1z"/>
	</g>
</g>
<g>
	<g>
		<path class="st1" d="M-292.4,101.7c-2.5-2.6-5.6-4-8.8-4c-3.2,0-6.3,1.4-8.9,4l-8.2,8.2c-0.7-0.4-1.4-0.7-2-1
			c-0.9-0.5-1.8-0.9-2.6-1.4c-7.7-4.9-14.7-11.3-21.4-19.5c-3.2-4.1-5.4-7.6-7-11.1c2.1-1.9,4.1-4,6-5.9c0.7-0.7,1.5-1.5,2.2-2.2
			c5.5-5.5,5.5-12.5,0-18l-7.1-7.1c-0.8-0.8-1.6-1.6-2.4-2.5c-1.6-1.6-3.2-3.3-4.9-4.8c-2.5-2.5-5.5-3.8-8.7-3.8s-6.2,1.3-8.8,3.8
			c0,0,0,0-0.1,0.1l-8.8,8.9c-3.3,3.3-5.2,7.4-5.6,12.1c-0.6,7.6,1.6,14.7,3.3,19.3c4.2,11.4,10.5,21.9,19.9,33.2
			c11.4,13.6,25.1,24.3,40.7,31.9c6,2.8,14,6.2,22.9,6.8c0.5,0,1.1,0.1,1.6,0.1c6,0,11-2.2,15-6.4c0-0.1,0.1-0.1,0.1-0.1
			c1.4-1.6,2.9-3.1,4.5-4.7c1.1-1.1,2.3-2.2,3.4-3.4c2.6-2.7,3.9-5.8,3.9-9c0-3.2-1.4-6.3-4-8.9L-292.4,101.7z M-283.1,129.1
			C-283.2,129.1-283.2,129.1-283.1,129.1c-1,1.1-2.1,2.1-3.2,3.2c-1.7,1.6-3.4,3.3-5,5.2c-2.6,2.8-5.7,4.1-9.8,4.1
			c-0.4,0-0.8,0-1.2,0c-7.7-0.5-14.9-3.5-20.3-6.1c-14.7-7.1-27.6-17.2-38.4-30c-8.9-10.7-14.8-20.6-18.7-31.2
			c-2.4-6.5-3.3-11.5-2.9-16.3c0.3-3,1.4-5.6,3.6-7.7l8.9-8.9c1.3-1.2,2.6-1.8,4-1.8c1.6,0,3,1,3.8,1.8c0,0,0.1,0.1,0.1,0.1
			c1.6,1.5,3.1,3,4.7,4.7c0.8,0.8,1.6,1.7,2.5,2.5l7.1,7.1c2.8,2.8,2.8,5.3,0,8.1c-0.8,0.8-1.5,1.5-2.2,2.2
			c-2.2,2.2-4.3,4.3-6.5,6.3c-0.1,0.1-0.1,0.1-0.1,0.1c-2.2,2.2-1.8,4.4-1.4,5.9c0,0.1,0.1,0.2,0.1,0.2c1.8,4.5,4.4,8.7,8.4,13.7
			l0,0c7.2,8.8,14.7,15.7,23.1,21c1.1,0.7,2.2,1.2,3.2,1.7c0.9,0.5,1.8,0.9,2.6,1.4c0.1,0.1,0.2,0.1,0.3,0.2
			c0.9,0.4,1.7,0.7,2.6,0.7c2.2,0,3.5-1.4,4-1.8l8.9-8.9c0.9-0.9,2.3-1.9,3.9-1.9c1.6,0,2.9,1,3.7,1.9c0,0,0,0,0.1,0.1l14.3,14.3
			C-280.5,123.6-280.5,126.3-283.1,129.1z"/>
		<path class="st1" d="M-323.2,54.7c6.8,1.1,13,4.4,17.9,9.3c4.9,4.9,8.1,11.1,9.3,17.9c0.3,1.7,1.8,2.9,3.5,2.9
			c0.2,0,0.4,0,0.6-0.1c1.9-0.3,3.2-2.1,2.9-4.1c-1.4-8.2-5.3-15.8-11.3-21.7c-6-6-13.5-9.9-21.7-11.3c-1.9-0.3-3.7,1-4.1,2.9
			C-326.4,52.6-325.1,54.4-323.2,54.7z"/>
		<path class="st1" d="M-266.8,79.7c-2.3-13.6-8.7-25.9-18.5-35.7c-9.8-9.8-22.2-16.2-35.7-18.5c-1.9-0.3-3.7,1-4,2.9
			c-0.3,1.9,1,3.7,2.9,4.1c12.1,2.1,23.2,7.8,31.9,16.6c8.8,8.8,14.5,19.8,16.6,31.9c0.3,1.7,1.8,2.9,3.5,2.9c0.2,0,0.4,0,0.6-0.1
			C-267.7,83.5-266.4,81.6-266.8,79.7z"/>
	</g>
</g>
<g>
	<g>
		<path class="st1" d="M126.8,154.8l-18.2-38.6c-0.4-0.8-1-1.4-1.8-1.7l-9.1-4l15.7-26.3c0-0.1,0.1-0.1,0.1-0.2
			c3.1-6.1,4.7-12.7,4.7-19.6c0-11.6-4.5-22.5-12.8-30.6c-8.3-8.1-19.2-12.5-30.8-12.4c-11.3,0.2-21.9,4.7-29.9,12.8
			c-8,8.1-12.4,18.7-12.5,30c0,6.9,1.6,13.8,4.7,19.8c0,0.1,0.1,0.1,0.1,0.2l15.7,26.3l-9.1,4.1c-0.7,0.3-1.3,0.9-1.7,1.7
			l-18.2,38.6c-0.6,1.3-0.4,2.8,0.6,3.8c1,1,2.5,1.3,3.8,0.7L51,149.2l22.8,10.2c0.9,0.4,1.9,0.4,2.8,0l22.8-10.2l22.8,10.2
			c0.4,0.2,0.9,0.3,1.4,0.3c0.9,0,1.8-0.4,2.4-1C127.1,157.7,127.4,156.1,126.8,154.8z M43,80.8c-2.6-5.2-3.9-10.8-3.9-16.6
			c0.1-19.6,16.1-35.7,35.7-36c9.8-0.1,19,3.6,25.9,10.4c7,6.9,10.8,16,10.8,25.8c0,5.8-1.3,11.3-3.9,16.4L78.2,130
			c-0.9,1.5-2.3,1.7-2.9,1.7c-0.6,0-2-0.2-2.9-1.7L43,80.8z M100.9,142.4c-0.9-0.4-1.9-0.4-2.8,0l-22.8,10.2l-22.8-10.2
			c-0.9-0.4-1.9-0.4-2.8,0l-15.8,7l13.8-29.1l8.7-3.9l10.2,17.1c1.9,3.1,5.2,5,8.8,5c3.6,0,6.9-1.9,8.8-5l10.2-17.1l8.7,3.9
			l13.8,29.1L100.9,142.4z"/>
	</g>
</g>
<g>
	<g>
		<path class="st1" d="M75.3,48.9c-8.6,0-15.6,7-15.6,15.6c0,8.6,7,15.6,15.6,15.6c8.6,0,15.6-7,15.6-15.6
			C90.8,55.8,83.8,48.9,75.3,48.9z M75.3,73.2c-4.8,0-8.7-3.9-8.7-8.7c0-4.8,3.9-8.7,8.7-8.7c4.8,0,8.7,3.9,8.7,8.7
			C84,69.3,80.1,73.2,75.3,73.2z"/>
	</g>
</g>
<g>
	<path class="st3" d="M511.8,575h-39.5c-13.4,0-24.3,10.9-24.3,24.3v39.5c0,13.4,10.9,24.3,24.3,24.3h39.5
		c13.4,0,24.3-10.9,24.3-24.3v-39.5C536.1,586,525.2,575,511.8,575z M528.3,638.9c0,9.1-7.4,16.5-16.5,16.5h-39.5
		c-9.1,0-16.5-7.4-16.5-16.5v-39.5c0-9.1,7.4-16.5,16.5-16.5h39.5c9.1,0,16.5,7.4,16.5,16.5L528.3,638.9L528.3,638.9z"/>
	<path class="st3" d="M492,596.4c-12.5,0-22.7,10.2-22.7,22.7c0,12.5,10.2,22.7,22.7,22.7c12.5,0,22.7-10.2,22.7-22.7
		C514.8,606.6,504.6,596.4,492,596.4z M492,634c-8.2,0-14.9-6.7-14.9-14.9c0-8.2,6.7-14.9,14.9-14.9c8.2,0,14.9,6.7,14.9,14.9
		C506.9,627.4,500.3,634,492,634z"/>
	<path class="st3" d="M515.7,589.8c-1.5,0-3,0.6-4.1,1.7c-1.1,1.1-1.7,2.5-1.7,4.1c0,1.5,0.6,3,1.7,4.1c1.1,1.1,2.5,1.7,4.1,1.7
		c1.5,0,3-0.6,4.1-1.7c1.1-1.1,1.7-2.6,1.7-4.1c0-1.5-0.6-3-1.7-4.1C518.7,590.4,517.2,589.8,515.7,589.8z"/>
</g>
<g>
	<g>
		<path class="st4" d="M128.4,586.2c-3.9,1.7-8.1,2.9-12.5,3.4c4.5-2.7,8-7,9.6-12.1c-4.2,2.5-8.9,4.3-13.9,5.3
			c-4-4.2-9.6-6.9-15.9-6.9c-12,0-21.8,9.8-21.8,21.8c0,1.7,0.2,3.4,0.6,5c-18.1-0.9-34.2-9.6-44.9-22.8c-1.9,3.2-2.9,7-2.9,11
			c0,7.6,3.9,14.2,9.7,18.1c-3.6-0.1-6.9-1.1-9.9-2.7v0.3c0,10.6,7.5,19.4,17.5,21.4c-1.8,0.5-3.8,0.8-5.7,0.8
			c-1.4,0-2.8-0.1-4.1-0.4c2.8,8.7,10.8,15,20.4,15.1c-7.5,5.8-16.9,9.3-27.1,9.3c-1.8,0-3.5-0.1-5.2-0.3c9.7,6.2,21.1,9.8,33.4,9.8
			c40.1,0,62-33.2,62-62l-0.1-2.8C121.8,594.4,125.5,590.6,128.4,586.2z"/>
	</g>
</g>
<g>
	<path class="st3" d="M-306.2,567.7l-13.3,0c-15,0-24.7,9.9-24.7,25.3v11.7h-13.4c-1.2,0-2.1,0.9-2.1,2.1v16.9
		c0,1.2,0.9,2.1,2.1,2.1h13.4v42.7c0,1.2,0.9,2.1,2.1,2.1h17.5c1.2,0,2.1-0.9,2.1-2.1v-42.7h15.7c1.2,0,2.1-0.9,2.1-2.1l0-16.9
		c0-0.6-0.2-1.1-0.6-1.5c-0.4-0.4-0.9-0.6-1.5-0.6h-15.7v-9.9c0-4.8,1.1-7.2,7.3-7.2l9,0c1.2,0,2.1-0.9,2.1-2.1v-15.7
		C-304.1,568.7-305.1,567.7-306.2,567.7z"/>
</g>
<circle class="st5" cx="81.7" cy="1125.8" r="52.9"/>
<g>
	<path class="st6" d="M39.8,1093.6c-4.2,5.4-7.3,11.6-9.1,18.4h27.5L39.8,1093.6z"/>
	<path class="st6" d="M132.8,1112c-1.8-6.8-5-13-9.1-18.4l-18.4,18.4H132.8z"/>
	<path class="st6" d="M30.7,1139.6c1.8,6.8,5,13,9.1,18.4l18.4-18.4H30.7L30.7,1139.6z"/>
	<path class="st6" d="M113.9,1083.9c-5.4-4.2-11.6-7.3-18.4-9.1v27.5L113.9,1083.9z"/>
	<path class="st6" d="M49.5,1167.8c5.4,4.2,11.6,7.3,18.4,9.1v-27.5L49.5,1167.8z"/>
	<path class="st6" d="M67.9,1074.7c-6.8,1.8-13,5-18.4,9.1l18.4,18.4V1074.7z"/>
	<path class="st6" d="M95.5,1176.9c6.8-1.8,13-5,18.4-9.1l-18.4-18.4V1176.9L95.5,1176.9z"/>
	<path class="st6" d="M105.3,1139.6l18.4,18.4c4.2-5.4,7.3-11.6,9.1-18.4H105.3z"/>
</g>
<g>
	<path class="st7" d="M134.2,1118.9H88.6l0,0v-45.5c-2.3-0.3-4.6-0.4-6.9-0.4c-2.3,0-4.6,0.2-6.9,0.4v45.5l0,0H29.3
		c-0.3,2.3-0.4,4.6-0.4,6.9s0.2,4.6,0.4,6.9h45.5l0,0v45.5c2.3,0.3,4.6,0.4,6.9,0.4c2.3,0,4.6-0.2,6.9-0.4v-45.5l0,0h45.5
		c0.3-2.3,0.4-4.6,0.4-6.9S134.4,1121.2,134.2,1118.9z"/>
	<path class="st7" d="M95.5,1139.6L95.5,1139.6l23.6,23.6c1.1-1.1,2.1-2.2,3.1-3.4l-20.2-20.2H95.5L95.5,1139.6L95.5,1139.6z"/>
	<path class="st7" d="M67.9,1139.6L67.9,1139.6l-23.6,23.6c1.1,1.1,2.2,2.1,3.4,3.1l20.2-20.2V1139.6L67.9,1139.6z"/>
	<path class="st7" d="M67.9,1112L67.9,1112l-23.6-23.6c-1.1,1.1-2.1,2.2-3.1,3.4l20.2,20.2H67.9L67.9,1112z"/>
	<path class="st7" d="M95.5,1112L95.5,1112l23.6-23.6c-1.1-1.1-2.2-2.1-3.4-3.1l-20.2,20.2V1112z"/>
</g>
<circle class="st5" cx="-321.6" cy="1120.8" r="54.9"/>
<path class="st7" d="M-266.7,1120.8c0-23.6-14.9-43.7-35.8-51.5v102.9C-281.6,1164.5-266.7,1144.4-266.7,1120.8z"/>
<path class="st6" d="M-376.5,1120.8c0,23.6,14.9,43.7,35.8,51.5v-102.9C-361.6,1077-376.5,1097.2-376.5,1120.8z"/>
<path class="st8" d="M-348,1705.1h-50c-1.5,0-2.7-1.2-2.7-2.7v-98.1c0-1.5,1.2-2.7,2.7-2.7h50V1705.1z"/>
<rect x="-347.9" y="1601.5" class="st9" width="52.7" height="103.6"/>
<path class="st10" d="M-245.3,1705.1h-50v-103.6h50c1.5,0,2.7,1.2,2.7,2.7v98.1C-242.5,1703.8-243.8,1705.1-245.3,1705.1z"/>
<path class="st10" d="M944,1700H791.9c-1.5,0-2.7-1.2-2.7-2.7v-97.8c0-1.5,1.2-2.7,2.7-2.7H944c1.5,0,2.7,1.2,2.7,2.7v97.8
	C946.7,1698.8,945.5,1700,944,1700z"/>
<path class="st11" d="M846.2,1596.7h-54.3c-1.5,0-2.7,1.2-2.7,2.7v97.8c0,1.5,1.2,2.7,2.7,2.7h54.3V1596.7L846.2,1596.7z"/>
<circle class="st12" cx="846.2" cy="1648.4" r="24.4"/>
<path class="st10" d="M854.4,1640.2v10.9c0,4.5-3.7,8.1-8.2,8.1c-4.5,0-8.2-3.7-8.2-8.1v-10.9H854.4 M857.1,1634.8h-21.7
	c-1.5,0-2.7,1.2-2.7,2.7v13.6c0,7.5,6.1,13.6,13.6,13.6c7.5,0,13.6-6.1,13.6-13.6v-13.6C859.8,1636,858.6,1634.8,857.1,1634.8
	L857.1,1634.8z"/>
<path class="st9" d="M854.4,1640.2v10.9c0,4.5-3.7,8.1-8.2,8.1c-4.5,0-8.2-3.7-8.2-8.1v-10.9H854.4"/>
<g>
	<circle class="st12" cx="835.3" cy="1637.5" r="1.4"/>
	<circle class="st12" cx="857.1" cy="1637.5" r="1.4"/>
	<circle class="st12" cx="835.3" cy="1648.4" r="1.4"/>
	<circle class="st12" cx="857.1" cy="1648.4" r="1.4"/>
	<circle class="st12" cx="846.2" cy="1637.5" r="1.4"/>
	<circle class="st12" cx="854.3" cy="1658.4" r="1.4"/>
	<circle class="st12" cx="838.2" cy="1658.4" r="1.4"/>
</g>
<g>
	<path class="st8" d="M848,1647.7v2.3c0,1-0.8,1.8-1.8,1.8c-1,0-1.8-0.8-1.8-1.8v-2.3H848"/>
	<path class="st8" d="M848,1642.1v2.3c0,1-0.8,1.8-1.8,1.8c-1,0-1.8-0.8-1.8-1.8v-2.3H848"/>
	<path class="st8" d="M848,1653.3v2.3c0,1-0.8,1.8-1.8,1.8c-1,0-1.8-0.8-1.8-1.8v-2.3H848"/>
	<path class="st8" d="M852.7,1647.7v2.3c0,1-0.8,1.8-1.8,1.8c-1,0-1.8-0.8-1.8-1.8v-2.3H852.7"/>
	<path class="st8" d="M843.2,1647.7v2.3c0,1-0.8,1.8-1.8,1.8s-1.8-0.8-1.8-1.8v-2.3H843.2"/>
</g>
<path class="st13" d="M411.1,1703.3h147.4c1.5,0,2.6-1.2,2.6-2.6v-94.8c0-1.5-1.2-2.6-2.6-2.6H411.1c-1.5,0-2.6,1.2-2.6,2.6v94.8
	C408.4,1702.1,409.6,1703.3,411.1,1703.3z"/>
<rect x="408.4" y="1624.3" class="st14" width="152.7" height="57.9"/>
<path class="st13" d="M472.9,1653.3l2.2-10c0.2-0.9-0.5-1.8-1.4-1.8h-1.6c-0.9,0-1.7,0.9-1.4,1.8L472.9,1653.3z"/>
<rect x="470.3" y="1648" class="st9" width="5.3" height="22.4"/>
<rect x="469" y="1645.4" class="st15" width="7.9" height="2.6"/>
<g>
	<rect x="463.7" y="1653.3" class="st13" width="13.2" height="2.6"/>
	<polygon class="st13" points="476.9,1663.8 469,1661.2 469,1658.5 476.9,1661.2 	"/>
	<path class="st13" d="M433.4,1653.3l2.2-10c0.2-0.9-0.5-1.8-1.4-1.8h-1.6c-0.9,0-1.7,0.9-1.4,1.8L433.4,1653.3z"/>
</g>
<path class="st9" d="M442.6,1645.4c-1.5,0-2.6,1.2-2.6,2.6v17.1c0,3.2,3,9.2,13.2,9.2c10.2,0,13.2-6,13.2-9.2V1648
	c0-1.5-1.2-2.6-2.6-2.6H442.6z"/>
<g>
	<path class="st13" d="M453.2,1658.5H440V1648c0-1.5,1.2-2.6,2.6-2.6h10.5V1658.5z"/>
	<path class="st13" d="M453.2,1658.5h13.2v6.6c0,3.6-2.9,6.6-6.6,6.6l0,0c-3.6,0-6.6-2.9-6.6-6.6V1658.5z"/>
</g>
<path class="st15" d="M440,1658.5h13.2v6.6c0,3.6-2.9,6.6-6.6,6.6l0,0c-3.6,0-6.6-2.9-6.6-6.6V1658.5z"/>
<g>
	<path class="st13" d="M450.5,1670.3v-11.8h-2.6v13C448.9,1671.4,449.8,1670.9,450.5,1670.3z"/>
	<path class="st13" d="M445.3,1671.6v-13h-2.6v11.8C443.4,1670.9,444.3,1671.4,445.3,1671.6z"/>
</g>
<rect x="442.6" y="1653.3" class="st16" width="7.9" height="2.6"/>
<g>
	<rect x="442.6" y="1648" class="st15" width="7.9" height="2.6"/>
	<rect x="444" y="1649.6" class="st15" width="5.3" height="4.8"/>
</g>
<rect x="430.8" y="1648" class="st9" width="5.3" height="22.4"/>
<g>
	<rect x="429.5" y="1669.1" class="st15" width="7.9" height="2.6"/>
	<rect x="429.5" y="1645.4" class="st15" width="7.9" height="2.6"/>
</g>
<rect x="428.2" y="1671.7" class="st17" width="10.5" height="2.6"/>
<rect x="470.3" y="1669.1" class="st15" width="7.9" height="2.6"/>
<rect x="467.6" y="1671.7" class="st17" width="10.5" height="2.6"/>
<rect x="445.3" y="1642.7" class="st15" width="15.8" height="2.6"/>
<rect x="451.9" y="1634.8" class="st16" width="2.6" height="7.9"/>
<g>
	<path class="st9" d="M450.5,1638.8c-2.2,0-3.9-1.8-3.9-3.9c0-2.2,1.8-3.9,3.9-3.9c2.2,0,3.9,1.8,3.9,3.9
		C454.5,1637,452.7,1638.8,450.5,1638.8z M450.5,1633.5c-0.7,0-1.3,0.6-1.3,1.3c0,0.7,0.6,1.3,1.3,1.3c0.7,0,1.3-0.6,1.3-1.3
		C451.9,1634.1,451.3,1633.5,450.5,1633.5z"/>
	<path class="st9" d="M455.8,1638.8c-2.2,0-3.9-1.8-3.9-3.9c0-2.2,1.8-3.9,3.9-3.9c2.2,0,3.9,1.8,3.9,3.9
		C459.8,1637,458,1638.8,455.8,1638.8z M455.8,1633.5c-0.7,0-1.3,0.6-1.3,1.3c0,0.7,0.6,1.3,1.3,1.3c0.7,0,1.3-0.6,1.3-1.3
		C457.1,1634.1,456.5,1633.5,455.8,1633.5z"/>
	<path class="st9" d="M461.1,1641.4c-2.2,0-3.9-1.8-3.9-3.9c0-2.2,1.8-3.9,3.9-3.9c2.2,0,3.9,1.8,3.9,3.9S463.2,1641.4,461.1,1641.4
		z M461.1,1636.2c-0.7,0-1.3,0.6-1.3,1.3s0.6,1.3,1.3,1.3c0.7,0,1.3-0.6,1.3-1.3S461.8,1636.2,461.1,1636.2z"/>
	<path class="st9" d="M445.3,1641.4c-2.2,0-3.9-1.8-3.9-3.9c0-2.2,1.8-3.9,3.9-3.9c2.2,0,3.9,1.8,3.9,3.9S447.5,1641.4,445.3,1641.4
		z M445.3,1636.2c-0.7,0-1.3,0.6-1.3,1.3s0.6,1.3,1.3,1.3c0.7,0,1.3-0.6,1.3-1.3S446,1636.2,445.3,1636.2z"/>
</g>
<path class="st15" d="M461.1,1663.8v1.3c0,0.7-0.6,1.3-1.3,1.3c-0.7,0-1.3-0.6-1.3-1.3v-1.3H461.1 M463.7,1661.2h-7.9v3.9
	c0,2.2,1.8,3.9,3.9,3.9c2.2,0,3.9-1.8,3.9-3.9V1661.2L463.7,1661.2z"/>
<path class="st18" d="M459.8,1655.9L459.8,1655.9c-1.5,0-2.6-1.2-2.6-2.6v-2.6c0-1.5,1.2-2.6,2.6-2.6l0,0c1.5,0,2.6,1.2,2.6,2.6v2.6
	C462.4,1654.7,461.2,1655.9,459.8,1655.9z"/>
<circle class="st17" cx="453.2" cy="1658.5" r="3.9"/>
<rect x="451.9" y="1629.6" class="st15" width="2.6" height="7.9"/>
<path class="st13" d="M445.3,1642.7l-2.6-2.6l1.5-1.5c2.4-2.4,5.6-3.7,9-3.7l0,0c3.4,0,6.6,1.3,9,3.7l1.5,1.5l-2.6,2.6H445.3z"/>
<g>
	<circle class="st14" cx="453.2" cy="1640.1" r="1.3"/>
	<circle class="st14" cx="447.9" cy="1640.1" r="1.3"/>
	<circle class="st14" cx="458.4" cy="1640.1" r="1.3"/>
</g>
<g>
	<rect x="429.5" y="1653.3" class="st13" width="13.2" height="2.6"/>
	<polygon class="st13" points="429.5,1663.8 437.4,1661.2 437.4,1658.5 429.5,1661.2 	"/>
</g>
<path class="st8" d="M155.9,1697.7H6.7c-1.5,0-2.7-1.2-2.7-2.7v-95.9c0-1.5,1.2-2.7,2.7-2.7h149.1c1.5,0,2.7,1.2,2.7,2.7v95.9
	C158.5,1696.5,157.3,1697.7,155.9,1697.7z"/>
<path class="st9" d="M158.5,1599.2c0-1.5-1.2-2.7-2.7-2.7h-11.9l-49.3,32.3v-32.3H68v32.3l-49.3-32.3H6.7c-1.5,0-2.7,1.2-2.7,2.7
	v6.9l42.3,27.7H4.1v26.6h42.3l-42.3,27.7v6.9c0,1.5,1.2,2.7,2.7,2.7h11.9l49.3-32.3v32.3h26.6v-32.3l49.3,32.3h11.9
	c1.5,0,2.7-1.2,2.7-2.7v-6.9l-42.3-27.7h42.3v-26.6h-42.3l42.3-27.7V1599.2z"/>
<g>
	<polygon class="st10" points="158.5,1639.2 89.3,1639.2 89.3,1596.5 73.3,1596.5 73.3,1639.2 4.1,1639.2 4.1,1655.1 73.3,1655.1 
		73.3,1697.7 89.3,1697.7 89.3,1655.1 158.5,1655.1 	"/>
	<path class="st10" d="M58.1,1660.5l-53.9,35c0.2,1.3,1.2,2.3,2.6,2.3h3.7l57.4-37.3L58.1,1660.5L58.1,1660.5z"/>
	<path class="st10" d="M108.6,1660.5h-9.8l57.3,37.2c1.3-0.1,2.4-1.2,2.4-2.6v-2.2L108.6,1660.5z"/>
	<path class="st10" d="M4.1,1602.1l48.8,31.7h9.8l-57-37c-0.9,0.4-1.6,1.3-1.6,2.4V1602.1z"/>
	<path class="st10" d="M104.4,1633.8l54-35.1c-0.2-1.2-1.3-2.2-2.6-2.2H152l-57.4,37.3H104.4z"/>
</g>
<path class="st19" d="M1308.5,1631.8h-150.9v-30.3c0-1.4,1.2-2.6,2.6-2.6h145.7c1.4,0,2.6,1.2,2.6,2.6V1631.8L1308.5,1631.8z"/>
<path class="st11" d="M1305.9,1697.7h-145.7c-1.4,0-2.6-1.2-2.6-2.6v-30.3h150.9v30.3C1308.5,1696.5,1307.4,1697.7,1305.9,1697.7z"
	/>
<rect x="1157.7" y="1631.8" class="st9" width="150.9" height="32.9"/>
<g>
	<path class="st10" d="M1158.6,1697.1l59.8-47.4c0.9-0.7,0.9-2,0-2.7l-59.8-47.4c-0.6,0.5-1,1.2-1,2v93.6
		C1157.7,1695.9,1158,1696.6,1158.6,1697.1z"/>
	<path class="st10" d="M1235.7,1648.3c0-5.9,3.9-11,9.2-12.7c0.3-0.1,0.3-0.5-0.1-0.6c-1-0.1-2.1-0.1-3.2,0.1
		c-6.3,0.9-11.1,6.2-11.5,12.6c-0.4,7.7,5.7,14,13.3,14c0.4,0,0.9,0,1.3-0.1c0.3,0,0.4-0.5,0.1-0.6
		C1239.6,1659.2,1235.7,1654.2,1235.7,1648.3z"/>
	<path class="st10" d="M1247.1,1639.5l-1.8,5.3l-5.5,0c-0.7,0-1,0.9-0.4,1.3l4.5,3.3l-1.7,5.3c-0.2,0.7,0.6,1.3,1.1,0.8l4.5-3.2
		l4.5,3.2c0.6,0.4,1.4-0.1,1.1-0.8l-1.7-5.3l4.5-3.3c0.6-0.4,0.3-1.3-0.4-1.3l-5.5,0l-1.8-5.3
		C1248.3,1638.8,1247.3,1638.8,1247.1,1639.5z"/>
</g>
</svg>
