<svg xmlns="http://www.w3.org/2000/svg" viewBox="0 0 103.72 138.28"><defs><style>.cls-1{fill:#eda544;}</style></defs><title>adresse</title><g id="Calque_2" data-name="Calque 2"><g id="Calque_1-2" data-name="Calque 1"><path class="cls-1" d="M103.4,133.41,85.17,94.85a3.45,3.45,0,0,0-1.75-1.68l-9.07-4L90.06,62.79l.11-.19A43,43,0,0,0,21.36,12.76a42.92,42.92,0,0,0-7.8,49.84,1.74,1.74,0,0,0,.1.19L29.38,89.13l-9.13,4.06a3.41,3.41,0,0,0-1.69,1.66L.33,133.41A3.41,3.41,0,0,0,4.8,138l22.84-10.16L50.48,138a3.35,3.35,0,0,0,2.77,0l22.84-10.16L98.93,138a3.33,3.33,0,0,0,1.38.3,3.42,3.42,0,0,0,3.09-4.87Zm-83.82-74a35.83,35.83,0,0,1-3.91-16.6,36.37,36.37,0,0,1,35.68-36A36.2,36.2,0,0,1,84.14,59.39l-29.35,49.2a3.42,3.42,0,0,1-5.86,0ZM77.48,121a3.37,3.37,0,0,0-2.78,0L51.86,131.13,29,121a3.35,3.35,0,0,0-2.77,0l-15.82,7,13.76-29.1L32.9,95l10.17,17a10.24,10.24,0,0,0,17.58,0L70.83,95l8.71,3.88L93.29,128Z"/><path class="cls-1" d="M51.86,27.44A15.58,15.58,0,1,0,67.44,43,15.59,15.59,0,0,0,51.86,27.44Zm0,24.32A8.75,8.75,0,1,1,60.61,43,8.76,8.76,0,0,1,51.86,51.76Z"/><rect class="cls-1" x="79.67" y="42.4" width="1.63" height="0.61"/></g></g></svg>