<svg xmlns="http://www.w3.org/2000/svg" viewBox="0 0 105.77 105.77"><defs><style>.cls-1{fill:#f1f0f0;}.cls-2{fill:#2e58a1;}.cls-3{fill:#c73534;}</style></defs><title>anglais-rounded</title><g id="Calque_2" data-name="Calque 2"><g id="Calque_1-2" data-name="Calque 1"><path class="cls-1" d="M52.88,0A52.89,52.89,0,1,1,0,52.88,52.89,52.89,0,0,1,52.88,0Z"/><path class="cls-2" d="M10.93,20.69a52.8,52.8,0,0,0-9.11,18.4H29.33Z"/><path class="cls-2" d="M104,39.09a52.8,52.8,0,0,0-9.11-18.4l-18.4,18.4Z"/><path class="cls-2" d="M1.82,66.68a52.8,52.8,0,0,0,9.11,18.4l18.4-18.4Z"/><path class="cls-2" d="M85.08,10.93a52.8,52.8,0,0,0-18.4-9.11V29.33Z"/><path class="cls-2" d="M20.69,94.84A52.8,52.8,0,0,0,39.09,104V76.44Z"/><path class="cls-2" d="M39.09,1.82a52.8,52.8,0,0,0-18.4,9.11l18.4,18.4Z"/><path class="cls-2" d="M66.68,104a52.8,52.8,0,0,0,18.4-9.11l-18.4-18.4V104Z"/><path class="cls-2" d="M76.44,66.68l18.4,18.4A52.8,52.8,0,0,0,104,66.68Z"/><path class="cls-3" d="M105.32,46H59.78V.45A53,53,0,0,0,46,.45V46H.45a53,53,0,0,0,0,13.79H46v45.54a53,53,0,0,0,13.79,0V59.78h45.54a53,53,0,0,0,0-13.79Z"/><path class="cls-3" d="M66.68,66.68h0l23.6,23.6q1.62-1.64,3.11-3.4L73.18,66.68Z"/><path class="cls-3" d="M39.09,66.68h0l-23.6,23.6c1.08,1.09,2.22,2.12,3.39,3.11L39.09,73.18v-6.5Z"/><path class="cls-3" d="M39.09,39.09h0l-23.6-23.6c-1.09,1.08-2.12,2.22-3.11,3.39L32.59,39.09Z"/><path class="cls-3" d="M66.68,39.09h0l23.6-23.6c-1.09-1.09-2.22-2.12-3.4-3.11l-20.2,20.2Z"/></g></g></svg>