<svg xmlns="http://www.w3.org/2000/svg" viewBox="0 0 154.45 101.19"><defs><style>.cls-1{fill:#424b96;}.cls-2{fill:#f5f6f6;}.cls-3{fill:#de5b5d;}</style></defs><title>anglais</title><g id="Calque_2" data-name="Calque 2"><g id="Calque_1-2" data-name="Calque 1"><path class="cls-1" d="M151.79,101.19H2.66A2.66,2.66,0,0,1,0,98.53V2.66A2.66,2.66,0,0,1,2.66,0H151.79a2.66,2.66,0,0,1,2.66,2.66V98.53A2.66,2.66,0,0,1,151.79,101.19Z"/><path class="cls-2" d="M154.45,2.66A2.66,2.66,0,0,0,151.79,0H139.88L90.54,32.32V0H63.91V32.32L14.58,0H2.66A2.66,2.66,0,0,0,0,2.66V9.55L42.33,37.28H0V63.91H42.33L0,91.64v6.89a2.66,2.66,0,0,0,2.66,2.66H14.58L63.91,68.87v32.32H90.54V68.87l49.34,32.32h11.91a2.66,2.66,0,0,0,2.66-2.66V91.64L112.13,63.91h42.32V37.28H112.13L154.45,9.55Z"/><polygon class="cls-3" points="154.45 42.61 85.22 42.61 85.22 0 69.24 0 69.24 42.61 0 42.61 0 58.59 69.24 58.59 69.24 101.19 85.22 101.19 85.22 58.59 154.45 58.59 154.45 42.61"/><path class="cls-3" d="M54,63.91.08,98.9a2.61,2.61,0,0,0,2.58,2.29H6.33L63.76,63.91Z"/><path class="cls-3" d="M104.49,63.91H94.71l57.35,37.23a2.64,2.64,0,0,0,2.39-2.61V96.34Z"/><path class="cls-3" d="M0,5.6,48.8,37.28h9.78l-57-37A2.64,2.64,0,0,0,0,2.66Z"/><path class="cls-3" d="M100.32,37.28l54-35.07A2.63,2.63,0,0,0,151.79,0H148L90.54,37.28Z"/></g></g></svg>