<svg xmlns="http://www.w3.org/2000/svg" viewBox="0 0 150.88 98.85"><defs><style>.cls-1{fill:#474755;}.cls-2{fill:#80ad52;}.cls-3{fill:#f5f6f6;}.cls-4{fill:#de5b5d;}</style></defs><title>arabe</title><g id="Calque_2" data-name="Calque 2"><g id="Calque_1-2" data-name="Calque 1"><path class="cls-1" d="M150.88,33H0V2.6A2.59,2.59,0,0,1,2.6,0H148.28a2.6,2.6,0,0,1,2.6,2.6V33Z"/><path class="cls-2" d="M148.28,98.85H2.6A2.59,2.59,0,0,1,0,96.25V65.9H150.88V96.25A2.6,2.6,0,0,1,148.28,98.85Z"/><rect class="cls-3" y="32.95" width="150.88" height="32.95"/><path class="cls-4" d="M1,98.22,60.73,50.77a1.71,1.71,0,0,0,0-2.69L1,.63a2.58,2.58,0,0,0-1,2V96.25A2.56,2.56,0,0,0,1,98.22Z"/><path class="cls-4" d="M78.08,49.43a13.34,13.34,0,0,1,9.23-12.7.3.3,0,0,0,0-.58,13.61,13.61,0,0,0-3.18.07A13.34,13.34,0,0,0,86,62.76c.44,0,.87,0,1.3-.06a.3.3,0,0,0,.06-.58A13.34,13.34,0,0,1,78.08,49.43Z"/><path class="cls-4" d="M89.4,40.66l-1.75,5.26-5.54,0a.75.75,0,0,0-.44,1.35l4.46,3.29-1.67,5.28a.74.74,0,0,0,1.14.83l4.51-3.22,4.51,3.22a.74.74,0,0,0,1.14-.83L94.09,50.6l4.46-3.29A.75.75,0,0,0,98.11,46l-5.54,0-1.75-5.26A.75.75,0,0,0,89.4,40.66Z"/></g></g></svg>