<svg xmlns="http://www.w3.org/2000/svg" viewBox="0 0 150.5 175.09"><defs><style>.cls-1{fill:#eda543;}</style></defs><title>cours_langue</title><g id="Calque_2" data-name="Calque 2"><g id="Calque_1-2" data-name="Calque 1"><path class="cls-1" d="M6.18,175.09H144.32a6.12,6.12,0,0,0,6.18-6.19V6.18A6.11,6.11,0,0,0,144.32,0H40.72a5.14,5.14,0,0,0-1.51.15.52.52,0,0,0-.3.15c-.45.15-.76.3-1.21.45-.15.15-.3.15-.45.31a4.08,4.08,0,0,0-1.21,1L1.51,42.83A5.89,5.89,0,0,0,.45,44.49a.9.9,0,0,0-.15.6c-.15.45-.15.91-.3,1.36v122.3a6.25,6.25,0,0,0,6.18,6.34Zm28.35-152v17.8H19.45Zm-22.16,30H40.72A6.11,6.11,0,0,0,46.9,46.9V12.37h91.24V162.72H12.37V53.08Z"/><path class="cls-1" d="M119.74,66.5h-89a6.19,6.19,0,0,0,0,12.37h89a6.19,6.19,0,0,0,0-12.37Z"/><path class="cls-1" d="M119.74,96.36h-89a6.19,6.19,0,0,0,0,12.37h89a6.11,6.11,0,0,0,6.18-6.18A6.21,6.21,0,0,0,119.74,96.36Z"/></g></g></svg>