<svg xmlns="http://www.w3.org/2000/svg" viewBox="0 0 152.67 100.02"><defs><style>.cls-1{fill:#ba4d50;}.cls-2{fill:#f9d368;}.cls-3{fill:#f5f6f6;}.cls-4{fill:#f1b65c;}.cls-5{fill:#f1b55a;}.cls-6{fill:#5466a6;}.cls-7{fill:#e9a6c5;}</style></defs><title>espagnol</title><g id="Calque_2" data-name="Calque 2"><g id="Calque_1-2" data-name="Calque 1"><path class="cls-1" d="M2.63,100H150a2.64,2.64,0,0,0,2.64-2.63V2.63A2.64,2.64,0,0,0,150,0H2.63A2.63,2.63,0,0,0,0,2.63V97.39A2.63,2.63,0,0,0,2.63,100Z"/><rect class="cls-2" y="21.06" width="152.67" height="57.91"/><path class="cls-1" d="M64.49,50l2.23-10a1.48,1.48,0,0,0-1.45-1.8H63.7A1.47,1.47,0,0,0,62.26,40Z"/><rect class="cls-3" x="61.86" y="44.75" width="5.26" height="22.37"/><rect class="cls-4" x="60.54" y="42.12" width="7.9" height="2.63"/><rect class="cls-1" x="55.28" y="50.01" width="13.16" height="2.63"/><polygon class="cls-1" points="68.44 60.54 60.54 57.91 60.54 55.27 68.44 57.91 68.44 60.54"/><path class="cls-1" d="M25,50l2.23-10a1.48,1.48,0,0,0-1.45-1.8H24.22A1.48,1.48,0,0,0,22.77,40Z"/><path class="cls-3" d="M34.22,42.11a2.63,2.63,0,0,0-2.63,2.64V61.86c0,3.19,3,9.21,13.16,9.21s13.16-6,13.16-9.21V44.75a2.64,2.64,0,0,0-2.63-2.64Z"/><path class="cls-1" d="M44.75,55.28H31.59V44.75a2.63,2.63,0,0,1,2.63-2.64H44.75Z"/><path class="cls-1" d="M44.75,55.28H57.91v6.58a6.59,6.59,0,0,1-6.58,6.58h0a6.58,6.58,0,0,1-6.58-6.58Z"/><path class="cls-4" d="M31.59,55.28H44.75v6.58a6.59,6.59,0,0,1-6.58,6.58h0a6.58,6.58,0,0,1-6.58-6.58Z"/><path class="cls-1" d="M42.11,67.09V55.28H39.48v13A6.34,6.34,0,0,0,42.11,67.09Z"/><path class="cls-1" d="M36.85,68.3v-13H34.22V67.09A6.4,6.4,0,0,0,36.85,68.3Z"/><rect class="cls-5" x="34.22" y="50.01" width="7.9" height="2.63"/><rect class="cls-4" x="34.22" y="44.75" width="7.9" height="2.63"/><rect class="cls-4" x="35.53" y="46.31" width="5.26" height="4.77"/><rect class="cls-3" x="22.37" y="44.75" width="5.26" height="22.37"/><rect class="cls-4" x="21.06" y="65.81" width="7.9" height="2.63"/><rect class="cls-4" x="21.06" y="42.12" width="7.9" height="2.63"/><rect class="cls-6" x="19.74" y="68.44" width="10.53" height="2.63"/><rect class="cls-4" x="61.86" y="65.81" width="7.9" height="2.63"/><rect class="cls-6" x="59.22" y="68.44" width="10.53" height="2.63"/><rect class="cls-4" x="36.85" y="39.48" width="15.79" height="2.63"/><rect class="cls-5" x="43.43" y="31.59" width="2.63" height="7.9"/><path class="cls-3" d="M42.11,35.53a3.95,3.95,0,1,1,4-3.94A3.95,3.95,0,0,1,42.11,35.53Zm0-5.26a1.32,1.32,0,1,0,1.32,1.32A1.32,1.32,0,0,0,42.11,30.27Z"/><path class="cls-3" d="M47.38,35.53a3.95,3.95,0,1,1,3.95-3.94A3.95,3.95,0,0,1,47.38,35.53Zm0-5.26a1.32,1.32,0,1,0,1.32,1.32A1.32,1.32,0,0,0,47.38,30.27Z"/><path class="cls-3" d="M52.64,38.17a4,4,0,1,1,4-4A3.95,3.95,0,0,1,52.64,38.17Zm0-5.27A1.32,1.32,0,1,0,54,34.22,1.32,1.32,0,0,0,52.64,32.9Z"/><path class="cls-3" d="M36.85,38.17a4,4,0,1,1,3.95-4A4,4,0,0,1,36.85,38.17Zm0-5.27a1.32,1.32,0,1,0,1.32,1.32A1.32,1.32,0,0,0,36.85,32.9Z"/><path class="cls-4" d="M52.64,60.54v1.32a1.32,1.32,0,0,1-2.63,0V60.54h2.63m2.64-2.63h-7.9v4a4,4,0,0,0,7.9,0v-4Z"/><path class="cls-7" d="M51.33,52.64h0A2.63,2.63,0,0,1,48.7,50V47.38a2.63,2.63,0,0,1,2.63-2.63h0A2.63,2.63,0,0,1,54,47.38V50A2.63,2.63,0,0,1,51.33,52.64Z"/><path class="cls-6" d="M44.75,51.33a3.95,3.95,0,1,1-4,3.94A3.94,3.94,0,0,1,44.75,51.33Z"/><rect class="cls-4" x="43.43" y="26.32" width="2.63" height="7.9"/><path class="cls-1" d="M36.85,39.48l-2.63-2.63,1.54-1.54a12.72,12.72,0,0,1,9-3.72h0a12.7,12.7,0,0,1,9,3.72l1.55,1.54-2.64,2.63Z"/><path class="cls-2" d="M44.75,35.53a1.32,1.32,0,1,1-1.32,1.32A1.32,1.32,0,0,1,44.75,35.53Z"/><path class="cls-2" d="M39.48,35.53a1.32,1.32,0,1,1-1.31,1.32A1.32,1.32,0,0,1,39.48,35.53Z"/><path class="cls-2" d="M50,35.53a1.32,1.32,0,1,1-1.32,1.32A1.32,1.32,0,0,1,50,35.53Z"/><rect class="cls-1" x="21.06" y="50.01" width="13.16" height="2.63"/><polygon class="cls-1" points="21.06 60.54 28.95 57.91 28.95 55.27 21.06 57.91 21.06 60.54"/></g></g></svg>