<svg xmlns="http://www.w3.org/2000/svg" viewBox="0 0 55.62 102.88"><defs><style>.cls-1{fill:#010101;}</style></defs><title>fb</title><g id="Calque_2" data-name="Calque 2"><g id="Calque_1-2" data-name="Calque 1"><path class="cls-1" d="M53.53,0,40.19,0c-15,0-24.68,9.94-24.68,25.32V37H2.1A2.1,2.1,0,0,0,0,39.09V56A2.09,2.09,0,0,0,2.1,58.1H15.51v42.68a2.1,2.1,0,0,0,2.1,2.1h17.5a2.1,2.1,0,0,0,2.1-2.1V58.1H52.89A2.09,2.09,0,0,0,55,56V39.09A2.12,2.12,0,0,0,52.9,37H37.21V27.1c0-4.76,1.13-7.17,7.33-7.17h9a2.09,2.09,0,0,0,2.09-2.09V2.12A2.09,2.09,0,0,0,53.53,0Z"/></g></g></svg>