<svg xmlns="http://www.w3.org/2000/svg" viewBox="0 0 116.72 116.78"><defs><style>.cls-1{fill:#eda543;}</style></defs><title>Fichier 39</title><g id="Calque_2" data-name="Calque 2"><g id="Calque_1-2" data-name="Calque 1"><path class="cls-1" d="M99.63,17.12A58,58,0,0,0,59.15,0c-.27,0-.53,0-.79,0s-.52,0-.79,0A58.35,58.35,0,0,0,17.1,99.66a57.91,57.91,0,0,0,40.47,17.08,7.82,7.82,0,0,0,1.58,0A58.36,58.36,0,0,0,99.63,17.12ZM22,22A51.1,51.1,0,0,1,43.89,9a56.65,56.65,0,0,0-5.31,7.27,68.94,68.94,0,0,0-5.51,11.16H17.27A53.77,53.77,0,0,1,22,22ZM12.85,34.4H30.73A87,87,0,0,0,27.5,54.92H7.06A51.1,51.1,0,0,1,12.85,34.4Zm0,48A51,51,0,0,1,7.06,61.86H27.5a86.82,86.82,0,0,0,3.23,20.52ZM22,94.75a52.7,52.7,0,0,1-4.73-5.43h15.8a68.54,68.54,0,0,0,5.51,11.16,57.49,57.49,0,0,0,5.31,7.28A51.22,51.22,0,0,1,22,94.75Zm32.89,13.67c-2.89-1.89-6.77-5.69-10.4-11.58a60.69,60.69,0,0,1-3.92-7.52H54.89v19.1Zm0-26H38a79.35,79.35,0,0,1-3.53-20.52H54.89V82.38Zm0-27.46H34.44A79.5,79.5,0,0,1,38,34.4H54.89V54.92Zm0-27.46H40.57a61.4,61.4,0,0,1,3.92-7.52c3.63-5.88,7.51-9.68,10.4-11.57V27.46Zm49,6.94a51,51,0,0,1,5.8,20.52H89.22A87,87,0,0,0,86,34.4ZM94.72,22a52.54,52.54,0,0,1,4.73,5.43H83.66A69.81,69.81,0,0,0,78.14,16.3,55.71,55.71,0,0,0,72.83,9,51,51,0,0,1,94.72,22ZM61.83,8.37c2.89,1.89,6.77,5.69,10.4,11.57a61.46,61.46,0,0,1,3.93,7.52H61.83V8.37Zm0,26H78.75a79.07,79.07,0,0,1,3.53,20.52H61.83ZM82.28,61.86a78.93,78.93,0,0,1-3.53,20.52H61.83V61.86ZM61.83,108.42V89.32H76.16a60.74,60.74,0,0,1-3.93,7.52C68.6,102.73,64.72,106.53,61.83,108.42ZM94.72,94.75a51.16,51.16,0,0,1-21.89,13,55.84,55.84,0,0,0,5.31-7.28,69.4,69.4,0,0,0,5.52-11.16H99.45A51.52,51.52,0,0,1,94.72,94.75Zm9.15-12.37H86a86.82,86.82,0,0,0,3.23-20.52h20.45A51,51,0,0,1,103.87,82.38Z"/></g></g></svg>