<?xml version="1.0" encoding="utf-8"?>
<!-- Generator: Adobe Illustrator 21.0.0, SVG Export Plug-In . SVG Version: 6.00 Build 0)  -->
<svg version="1.1" id="Calque_1" xmlns="http://www.w3.org/2000/svg" xmlns:xlink="http://www.w3.org/1999/xlink" x="0px" y="0px"
	 viewBox="0 0 265.5 434" style="enable-background:new 0 0 265.5 434;" xml:space="preserve">
<style type="text/css">
	.st0{fill-rule:evenodd;clip-rule:evenodd;fill:#F6A200;}
	.st1{fill:#F6A200;}
	.st2{fill:#FFFFFF;}
	.st3{fill:#13110C;}
	.st4{fill:#14120F;}
	.st5{fill:#F6F6F7;}
	.st6{fill:#294C9C;}
	.st7{fill:#D4111C;}
	.st8{fill:#443D90;}
	.st9{fill:#FAFAFB;}
	.st10{fill:#E94350;}
	.st11{fill:#76AB2C;}
	.st12{fill:#FFE350;}
	.st13{fill:#CA3A42;}
	.st14{fill:#FFD546;}
	.st15{fill:#FAB73B;}
	.st16{fill:#FAB638;}
	.st17{fill:#535FA6;}
	.st18{fill:#F3A8CA;}
	.st19{fill:#4C4857;}
</style>
<path class="st0" d="M-1629-518c-1.9-1.1-1.9-2.8-1.4-4.6c8.1-24.6,19-47.9,34.2-69c11.5-16.1,25.1-30.4,40.1-43.5
	c15.6-13.6,32.7-24.8,51.2-33.7c17.5-8.4,35.8-14.7,55.1-18.2c9.3-1.7,18.5-2.9,27.9-4.1c11.4-1.4,22.8-1.2,34.1-0.6
	c17.5,0.9,34.9,4,51.8,9c14.4,4.3,28.4,9.6,41.8,16.6c16.4,8.6,31.8,18.7,45.9,30.8c17.6,15.2,32.9,32.2,45.6,51.7
	c13.6,21,24,43.3,30.3,67.6c3.9,14.9,6.6,29.9,8.1,45.3c1.2,11.9,1.4,23.8,0.5,35.6c-2.1,28.5-8.4,56-20.1,82.3
	c-8.6,19.3-19.6,37-32.6,53.7c-8.4,10.7-17.9,20.3-27.8,29.4c-13,11.8-27.4,21.9-42.9,30.4c-14,7.7-28.6,14.1-43.9,18.7
	c-13.6,4.1-27.3,7.1-41.4,9c-14.4,2-28.8,2.2-43.2,1.6c-10.5-0.4-20.9-2.5-31.4-3.8c-1.5-0.2-1.5-1-1.4-2c0.1-1.6,1.4-1.2,2.2-1
	c4.5,0.8,9.1,1.6,13.7,2.1c6.2,0.7,12.4,1.9,18.7,1.9c8.2,0,16.3,0.2,24.5-0.1c16.1-0.6,32-3.2,47.5-7.3c16-4.2,31.6-10.1,46.3-17.7
	c16.2-8.4,31.3-18.4,45.1-30.4c18.5-16,34.6-34.1,47.7-54.8c12.8-20.3,22.5-42,28.4-65.4c3.4-13.4,5.7-26.9,7.1-40.7
	c1.4-13.2,1.6-26.5,0.5-39.6c-2.2-27.8-8.5-54.7-20.2-80.2c-8.5-18.5-19-35.6-31.6-51.6c-8.2-10.4-17.4-19.9-27.1-28.7
	c-13.4-12.2-28.2-22.6-44.1-31.4c-19.1-10.6-39.5-18-60.6-23.1c-9.8-2.4-20.1-3.5-30.3-4.4c-12.9-1.2-25.8-1.3-38.6-0.5
	c-20.3,1.3-40.1,5.5-59.5,12.2c-24.2,8.4-46.7,20.2-66.7,36.1c-23.2,18.4-42.9,40.1-58.3,65.7c-10.7,17.7-18.3,36.5-24.9,55.9
	C-1628.7-518.5-1628.8-518.3-1629-518z"/>
<g>
	<g>
		<path class="st1" d="M63.7-268.8h138.1c3.5,0,6.2-2.7,6.2-6.2v-162.7c0-3.5-2.7-6.2-6.2-6.2H98.2c-0.5,0-1.1,0-1.5,0.2
			c-0.1,0-0.3,0.2-0.3,0.2c-0.5,0.2-0.8,0.3-1.2,0.5c-0.2,0.2-0.3,0.2-0.5,0.3c-0.5,0.3-0.9,0.6-1.2,1.1L59-401.1
			c-0.5,0.5-0.8,1.1-1.1,1.7c-0.2,0.2-0.2,0.5-0.2,0.6c-0.2,0.5-0.2,0.9-0.3,1.4c0,0.2,0,0.2,0,0.3v122
			C57.5-271.5,60.4-268.8,63.7-268.8L63.7-268.8z M92-420.8v17.8H76.9L92-420.8z M69.9-390.8h28.4c3.5,0,6.2-2.7,6.2-6.2v-34.5h91.2
			v150.4H69.9V-390.8L69.9-390.8z"/>
		<path class="st1" d="M177.2-377.4h-89c-3.5,0-6.2,2.7-6.2,6.2c0,3.5,2.7,6.2,6.2,6.2h89c3.5,0,6.2-2.7,6.2-6.2
			C183.4-374.7,180.7-377.4,177.2-377.4z"/>
		<path class="st1" d="M177.2-347.5h-89c-3.5,0-6.2,2.7-6.2,6.2c0,3.5,2.7,6.2,6.2,6.2h89c3.5,0,6.2-2.7,6.2-6.2
			C183.4-344.7,180.7-347.5,177.2-347.5z"/>
	</g>
</g>
<g>
	<path class="st1" d="M529.1-328.6c17.9,0,32.5-14.6,32.5-32.5c0-17.9-14.6-32.5-32.5-32.5c-17.9,0-32.5,14.6-32.5,32.5
		C496.6-343.2,511.2-328.6,529.1-328.6z"/>
	<path class="st1" d="M572.8-312.8C572.8-312.8,572.7-312.8,572.8-312.8c-4.3-1.1-17.3-2.9-17.3-2.9c-1.5-0.5-3,0.3-3.6,1.8
		l-19.5,53.6c-1.1,3.1-5.5,3.1-6.6,0l-19.5-53.6c-0.4-1.2-1.5-1.9-2.7-1.9c-0.3,0-13.6,1.9-18.1,3c-12.1,3-19.8,14.9-19.8,27.4v44.6
		c0,6.7,5.4,12.1,12.1,12.1h102.6c6.7,0,12.1-5.4,12.1-12.1v-44.7C592.5-298,584.5-309,572.8-312.8L572.8-312.8z"/>
	<path class="st1" d="M536.5-316.7c-0.8-0.8-1.9-1.3-3.1-1.3h-8.6c-1.2,0-2.3,0.4-3.1,1.3c-1.2,1.3-1.4,3.2-0.5,4.7l4.6,6.9
		l-2.2,18.1l4.2,11.3c0.4,1.1,2,1.1,2.4,0l4.2-11.3l-2.2-18.1l4.6-6.9C537.9-313.5,537.7-315.4,536.5-316.7z"/>
</g>
<path class="st1" d="M628-459.6c-2-0.7-4.2,0.4-4.8,2.5c-0.7,2,0.4,4.2,2.4,4.8c0,0,0,0,0,0c12.6,4.1,22.6,12.8,28.3,24.5
	c5.6,11.4,6.3,24.2,2,36.2c-5.4,15-16.8,26.2-31.5,30.7c-0.2,0-0.3,0.1-0.5,0.2l-0.6,0.2c-0.2,0-0.3,0.1-0.5,0.1l-42.1,12l4.6-13.9
	c0.6-1.6-0.1-3.5-1.5-4.4c-18.1-12-25.9-34.7-19.1-55.2c5.3-16,18.4-27.8,34.9-31.6c2.1-0.5,3.4-2.5,2.9-4.6
	c-0.5-2.1-2.5-3.4-4.6-2.9c-19.1,4.4-34.3,18.1-40.5,36.6c-7.6,22.9,0.4,48.1,19.7,62.4l-6,18.1c-0.5,1.4-0.1,2.8,0.9,3.9
	c0.4,0.5,1,0.8,1.6,1c0.7,0.2,1.5,0.3,2.3,0.1l49.1-14c0.2-0.1,0.4-0.1,0.6-0.2l1.2-0.3c0.2-0.1,0.4-0.2,0.7-0.3
	c16.7-5.4,29.7-18.2,35.8-35.3c5-13.9,4.1-28.9-2.3-42.2C654.2-444.7,642.5-454.8,628-459.6z"/>
<path class="st1" d="M636.7-416.7h-20.9l-3.4-14.8h-28.7c-1.9,0-3.4,1.5-3.4,3.4v29.5c0,1.9,1.5,3.4,3.4,3.4h20.9l3.4,14.8h28.7
	c1.9,0,3.4-1.5,3.4-3.4v-29.5C640.1-415.2,638.6-416.7,636.7-416.7z M584.3-399.1v-28.4h25l6.5,28.4H584.3z M608.6-395.2h7.4l-5.5,8
	L608.6-395.2z M636.2-384.4h-22.9l4.2-6.1l0.6,1c2.6-1.6,4.6-3.4,6.2-5.3l5,5.1l2.1-2l-5.3-5.4c2.2-3.3,3.3-6.3,3.7-7.9h3.4v-2.9
	h-7.1v-1.7h-2.9v1.7h-5.3l-1.1-4.9h19.4L636.2-384.4L636.2-384.4z M620.8-395.2L620.8-395.2l-1-4.2l2.5,2.6
	c-0.5,0.6-1.1,1.2-1.7,1.9L620.8-395.2L620.8-395.2z M620.8-402.6l-1.4,1.3l-0.9-3.8h8.3c-0.4,1.4-1.3,3.5-2.8,5.8L620.8-402.6z"/>
<path class="st1" d="M591.5-403.5c0.6,0,1.2-0.4,1.4-0.9l2-4.8h7.6l2.1,4.9c0.3,0.8,1.2,1.1,2,0.8c0.8-0.3,1.1-1.2,0.8-2l-2.5-5.8
	c0,0,0,0,0,0l-4.9-11.4c-0.2-0.6-0.8-0.9-1.4-0.9c0,0,0,0,0,0c-0.6,0-1.2,0.4-1.4,0.9l-4.7,11.4c0,0,0,0,0,0l-2.4,5.8"/>
<polygon class="st2" points="598.6,-418.3 601.2,-412.3 596.1,-412.3 "/>
<g>
	<g>
		<path class="st1" d="M-224.7-382.3c-10.8-10.8-25.2-16.9-40.5-17.1c-0.3,0-0.5,0-0.8,0c-0.3,0-0.5,0-0.8,0
			c-15.3,0.2-29.6,6.2-40.5,17.1c-11,11-17.1,25.7-17.1,41.3c0,15.6,6.1,30.2,17.1,41.3c10.8,10.8,25.2,16.9,40.5,17.1
			c0.3,0,0.5,0,0.8,0c0.3,0,0.5,0,0.8,0c15.3-0.2,29.6-6.2,40.5-17.1c11-11,17.1-25.7,17.1-41.3
			C-207.6-356.6-213.7-371.3-224.7-382.3z M-302.4-377.4c6.2-6.2,13.7-10.6,21.9-13c-1.8,2.1-3.6,4.6-5.3,7.3
			c-2.1,3.5-4,7.2-5.5,11.2h-15.8C-305.7-373.9-304.1-375.7-302.4-377.4z M-311.5-365h17.9c-1.9,6.5-3,13.4-3.2,20.5h-20.4
			C-316.8-351.8-314.9-358.7-311.5-365z M-311.5-317.1c-3.3-6.3-5.3-13.3-5.8-20.5h20.4c0.3,7.1,1.4,14,3.2,20.5H-311.5z
			 M-302.4-304.7c-1.7-1.7-3.3-3.5-4.7-5.4h15.8c1.5,4,3.4,7.7,5.5,11.2c1.7,2.7,3.5,5.2,5.3,7.3
			C-288.7-294.1-296.2-298.5-302.4-304.7z M-269.5-291c-2.9-1.9-6.8-5.7-10.4-11.6c-1.5-2.4-2.8-4.9-3.9-7.5h14.3L-269.5-291
			L-269.5-291z M-269.5-317.1h-16.9c-2-6.4-3.2-13.4-3.5-20.5h20.5V-317.1L-269.5-317.1z M-269.5-344.5h-20.5
			c0.3-7.1,1.5-14.1,3.5-20.5h16.9V-344.5L-269.5-344.5z M-269.5-372h-14.3c1.2-2.6,2.5-5.2,3.9-7.5c3.6-5.9,7.5-9.7,10.4-11.6V-372
			L-269.5-372z M-220.5-365c3.3,6.3,5.3,13.3,5.8,20.5h-20.4c-0.3-7.1-1.4-14-3.2-20.5H-220.5z M-229.6-377.4
			c1.7,1.7,3.3,3.5,4.7,5.4h-15.8c-1.5-4-3.4-7.7-5.5-11.2c-1.7-2.7-3.5-5.2-5.3-7.3C-243.4-388-235.8-383.6-229.6-377.4z
			 M-262.5-391.1c2.9,1.9,6.8,5.7,10.4,11.6c1.5,2.4,2.8,4.9,3.9,7.5h-14.3V-391.1L-262.5-391.1z M-262.5-365h16.9
			c2,6.4,3.2,13.4,3.5,20.5h-20.4V-365z M-242.1-337.6c-0.3,7.1-1.5,14.1-3.5,20.5h-16.9v-20.5H-242.1z M-262.5-291v-19.1h14.3
			c-1.2,2.6-2.5,5.2-3.9,7.5C-255.8-296.7-259.6-292.9-262.5-291z M-229.6-304.7c-6.2,6.2-13.7,10.6-21.9,13
			c1.8-2.1,3.6-4.6,5.3-7.3c2.1-3.5,4-7.2,5.5-11.2h15.8C-226.4-308.2-227.9-306.4-229.6-304.7z M-220.5-317.1h-17.9
			c1.9-6.5,3-13.4,3.2-20.5h20.4C-215.2-330.3-217.2-323.4-220.5-317.1z"/>
	</g>
</g>
<g>
	<g>
		<path class="st1" d="M-235,231.7c-2.5-2.6-5.6-4-8.8-4c-3.2,0-6.3,1.4-8.9,4l-8.2,8.2c-0.7-0.4-1.4-0.7-2-1
			c-0.9-0.5-1.8-0.9-2.6-1.4c-7.7-4.9-14.7-11.3-21.4-19.5c-3.2-4.1-5.4-7.6-7-11.1c2.1-1.9,4.1-4,6-5.9c0.7-0.7,1.5-1.5,2.2-2.2
			c5.5-5.5,5.5-12.5,0-18l-7.1-7.1c-0.8-0.8-1.6-1.6-2.4-2.5c-1.6-1.6-3.2-3.3-4.9-4.8c-2.5-2.5-5.5-3.8-8.7-3.8s-6.2,1.3-8.8,3.8
			c0,0,0,0-0.1,0.1l-8.8,8.9c-3.3,3.3-5.2,7.4-5.6,12.1c-0.6,7.6,1.6,14.7,3.3,19.3c4.2,11.4,10.5,21.9,19.9,33.2
			c11.4,13.6,25.1,24.3,40.7,31.9c6,2.8,14,6.2,22.9,6.8c0.5,0,1.1,0.1,1.6,0.1c6,0,11-2.2,15-6.4c0-0.1,0.1-0.1,0.1-0.1
			c1.4-1.6,2.9-3.1,4.5-4.7c1.1-1.1,2.3-2.2,3.4-3.4c2.6-2.7,3.9-5.8,3.9-9c0-3.2-1.4-6.3-4-8.9L-235,231.7z M-225.6,259.1
			C-225.7,259.1-225.7,259.1-225.6,259.1c-1,1.1-2.1,2.1-3.2,3.2c-1.7,1.6-3.4,3.3-5,5.2c-2.6,2.8-5.7,4.1-9.8,4.1
			c-0.4,0-0.8,0-1.2,0c-7.7-0.5-14.9-3.5-20.3-6.1c-14.7-7.1-27.6-17.2-38.4-30c-8.9-10.7-14.8-20.6-18.7-31.2
			c-2.4-6.5-3.3-11.5-2.9-16.3c0.3-3,1.4-5.6,3.6-7.7l8.9-8.9c1.3-1.2,2.6-1.8,4-1.8c1.6,0,3,1,3.8,1.8c0,0,0.1,0.1,0.1,0.1
			c1.6,1.5,3.1,3,4.7,4.7c0.8,0.8,1.6,1.7,2.5,2.5l7.1,7.1c2.8,2.8,2.8,5.3,0,8.1c-0.8,0.8-1.5,1.5-2.2,2.2
			c-2.2,2.2-4.3,4.3-6.5,6.3c-0.1,0.1-0.1,0.1-0.1,0.1c-2.2,2.2-1.8,4.4-1.4,5.9c0,0.1,0.1,0.2,0.1,0.2c1.8,4.5,4.4,8.7,8.4,13.7
			l0,0c7.2,8.8,14.7,15.7,23.1,21c1.1,0.7,2.2,1.2,3.2,1.7c0.9,0.5,1.8,0.9,2.6,1.4c0.1,0.1,0.2,0.1,0.3,0.2
			c0.9,0.4,1.7,0.7,2.6,0.7c2.2,0,3.5-1.4,4-1.8l8.9-8.9c0.9-0.9,2.3-1.9,3.9-1.9c1.6,0,2.9,1,3.7,1.9c0,0,0,0,0.1,0.1l14.3,14.3
			C-223,253.6-223,256.3-225.6,259.1z"/>
		<path class="st1" d="M-265.7,184.7c6.8,1.1,13,4.4,17.9,9.3c4.9,4.9,8.1,11.1,9.3,17.9c0.3,1.7,1.8,2.9,3.5,2.9
			c0.2,0,0.4,0,0.6-0.1c1.9-0.3,3.2-2.1,2.9-4.1c-1.4-8.2-5.3-15.8-11.3-21.7c-6-6-13.5-9.9-21.7-11.3c-1.9-0.3-3.7,1-4.1,2.9
			C-268.9,182.6-267.6,184.4-265.7,184.7z"/>
		<path class="st1" d="M-209.3,209.7c-2.3-13.6-8.7-25.9-18.5-35.7c-9.8-9.8-22.2-16.2-35.7-18.5c-1.9-0.3-3.7,1-4,2.9
			c-0.3,1.9,1,3.7,2.9,4.1c12.1,2.1,23.2,7.8,31.9,16.6c8.8,8.8,14.5,19.8,16.6,31.9c0.3,1.7,1.8,2.9,3.5,2.9c0.2,0,0.4,0,0.6-0.1
			C-210.2,213.5-208.9,211.6-209.3,209.7z"/>
	</g>
</g>
<g>
	<g>
		<path class="st1" d="M184.3,284.8L166,246.3c-0.4-0.8-1-1.4-1.8-1.7l-9.1-4l15.7-26.3c0-0.1,0.1-0.1,0.1-0.2
			c3.1-6.1,4.7-12.7,4.7-19.6c0-11.6-4.5-22.5-12.8-30.6c-8.3-8.1-19.2-12.5-30.8-12.4c-11.3,0.2-21.9,4.7-29.9,12.8
			c-8,8.1-12.4,18.7-12.5,30c0,6.9,1.6,13.8,4.7,19.8c0,0.1,0.1,0.1,0.1,0.2l15.7,26.3l-9.1,4.1c-0.7,0.3-1.3,0.9-1.7,1.7
			l-18.2,38.6c-0.6,1.3-0.4,2.8,0.6,3.8c1,1,2.5,1.3,3.8,0.7l22.8-10.2l22.8,10.2c0.9,0.4,1.9,0.4,2.8,0l22.8-10.2l22.8,10.2
			c0.4,0.2,0.9,0.3,1.4,0.3c0.9,0,1.8-0.4,2.4-1C184.6,287.7,184.9,286.1,184.3,284.8z M100.5,210.8c-2.6-5.2-3.9-10.8-3.9-16.6
			c0.1-19.6,16.1-35.7,35.7-36c9.8-0.1,19,3.6,25.9,10.4c7,6.9,10.8,16,10.8,25.8c0,5.8-1.3,11.3-3.9,16.4L135.7,260
			c-0.9,1.5-2.3,1.7-2.9,1.7c-0.6,0-2-0.2-2.9-1.7L100.5,210.8z M158.4,272.4c-0.9-0.4-1.9-0.4-2.8,0l-22.8,10.2l-22.8-10.2
			c-0.9-0.4-1.9-0.4-2.8,0l-15.8,7l13.8-29.1l8.7-3.9l10.2,17.1c1.9,3.1,5.2,5,8.8,5c3.6,0,6.9-1.9,8.8-5l10.2-17.1l8.7,3.9
			l13.8,29.1L158.4,272.4z"/>
	</g>
</g>
<g>
	<g>
		<path class="st1" d="M132.7,178.9c-8.6,0-15.6,7-15.6,15.6c0,8.6,7,15.6,15.6,15.6c8.6,0,15.6-7,15.6-15.6
			C148.3,185.8,141.3,178.9,132.7,178.9z M132.7,203.2c-4.8,0-8.7-3.9-8.7-8.7c0-4.8,3.9-8.7,8.7-8.7c4.8,0,8.7,3.9,8.7,8.7
			C141.5,199.3,137.6,203.2,132.7,203.2z"/>
	</g>
</g>
<g>
	<path class="st3" d="M569.3,705h-39.5c-13.4,0-24.3,10.9-24.3,24.3v39.5c0,13.4,10.9,24.3,24.3,24.3h39.5
		c13.4,0,24.3-10.9,24.3-24.3v-39.5C593.6,716,582.7,705,569.3,705z M585.8,768.9c0,9.1-7.4,16.5-16.5,16.5h-39.5
		c-9.1,0-16.5-7.4-16.5-16.5v-39.5c0-9.1,7.4-16.5,16.5-16.5h39.5c9.1,0,16.5,7.4,16.5,16.5L585.8,768.9L585.8,768.9z"/>
	<path class="st3" d="M549.5,726.4c-12.5,0-22.7,10.2-22.7,22.7c0,12.5,10.2,22.7,22.7,22.7c12.5,0,22.7-10.2,22.7-22.7
		C572.3,736.6,562.1,726.4,549.5,726.4z M549.5,764c-8.2,0-14.9-6.7-14.9-14.9c0-8.2,6.7-14.9,14.9-14.9c8.2,0,14.9,6.7,14.9,14.9
		C564.4,757.4,557.7,764,549.5,764z"/>
	<path class="st3" d="M573.2,719.8c-1.5,0-3,0.6-4.1,1.7c-1.1,1.1-1.7,2.5-1.7,4.1c0,1.5,0.6,3,1.7,4.1c1.1,1.1,2.5,1.7,4.1,1.7
		c1.5,0,3-0.6,4.1-1.7c1.1-1.1,1.7-2.6,1.7-4.1c0-1.5-0.6-3-1.7-4.1C576.2,720.4,574.7,719.8,573.2,719.8z"/>
</g>
<g>
	<g>
		<path class="st4" d="M185.9,716.2c-3.9,1.7-8.1,2.9-12.5,3.4c4.5-2.7,8-7,9.6-12.1c-4.2,2.5-8.9,4.3-13.9,5.3
			c-4-4.2-9.6-6.9-15.9-6.9c-12,0-21.8,9.8-21.8,21.8c0,1.7,0.2,3.4,0.6,5c-18.1-0.9-34.2-9.6-44.9-22.8c-1.9,3.2-2.9,7-2.9,11
			c0,7.6,3.9,14.2,9.7,18.1c-3.6-0.1-6.9-1.1-9.9-2.7v0.3c0,10.6,7.5,19.4,17.5,21.4c-1.8,0.5-3.8,0.8-5.7,0.8
			c-1.4,0-2.8-0.1-4.1-0.4c2.8,8.7,10.8,15,20.4,15.1c-7.5,5.8-16.9,9.3-27.1,9.3c-1.8,0-3.5-0.1-5.2-0.3c9.7,6.2,21.1,9.8,33.4,9.8
			c40.1,0,62-33.2,62-62l-0.1-2.8C179.3,724.4,183,720.6,185.9,716.2z"/>
	</g>
</g>
<g>
	<path class="st3" d="M-248.7,697.7l-13.3,0c-15,0-24.7,9.9-24.7,25.3v11.7h-13.4c-1.2,0-2.1,0.9-2.1,2.1v16.9
		c0,1.2,0.9,2.1,2.1,2.1h13.4v42.7c0,1.2,0.9,2.1,2.1,2.1h17.5c1.2,0,2.1-0.9,2.1-2.1v-42.7h15.7c1.2,0,2.1-0.9,2.1-2.1l0-16.9
		c0-0.6-0.2-1.1-0.6-1.5c-0.4-0.4-0.9-0.6-1.5-0.6H-265v-9.9c0-4.8,1.1-7.2,7.3-7.2l9,0c1.2,0,2.1-0.9,2.1-2.1v-15.7
		C-246.6,698.7-247.6,697.7-248.7,697.7z"/>
</g>
<circle class="st5" cx="139.2" cy="1255.8" r="52.9"/>
<g>
	<path class="st6" d="M97.3,1223.6c-4.2,5.4-7.3,11.6-9.1,18.4h27.5L97.3,1223.6z"/>
	<path class="st6" d="M190.3,1242c-1.8-6.8-5-13-9.1-18.4l-18.4,18.4H190.3z"/>
	<path class="st6" d="M88.1,1269.6c1.8,6.8,5,13,9.1,18.4l18.4-18.4H88.1L88.1,1269.6z"/>
	<path class="st6" d="M171.4,1213.9c-5.4-4.2-11.6-7.3-18.4-9.1v27.5L171.4,1213.9z"/>
	<path class="st6" d="M107,1297.8c5.4,4.2,11.6,7.3,18.4,9.1v-27.5L107,1297.8z"/>
	<path class="st6" d="M125.4,1204.7c-6.8,1.8-13,5-18.4,9.1l18.4,18.4V1204.7z"/>
	<path class="st6" d="M153,1306.9c6.8-1.8,13-5,18.4-9.1l-18.4-18.4V1306.9L153,1306.9z"/>
	<path class="st6" d="M162.8,1269.6l18.4,18.4c4.2-5.4,7.3-11.6,9.1-18.4H162.8z"/>
</g>
<g>
	<path class="st7" d="M191.6,1248.9h-45.5l0,0v-45.5c-2.3-0.3-4.6-0.4-6.9-0.4s-4.6,0.2-6.9,0.4v45.5l0,0H86.8
		c-0.3,2.3-0.4,4.6-0.4,6.9s0.2,4.6,0.4,6.9h45.5l0,0v45.5c2.3,0.3,4.6,0.4,6.9,0.4s4.6-0.2,6.9-0.4v-45.5l0,0h45.5
		c0.3-2.3,0.4-4.6,0.4-6.9S191.9,1251.2,191.6,1248.9z"/>
	<path class="st7" d="M153,1269.6L153,1269.6l23.6,23.6c1.1-1.1,2.1-2.2,3.1-3.4l-20.2-20.2H153L153,1269.6L153,1269.6z"/>
	<path class="st7" d="M125.4,1269.6L125.4,1269.6l-23.6,23.6c1.1,1.1,2.2,2.1,3.4,3.1l20.2-20.2V1269.6L125.4,1269.6z"/>
	<path class="st7" d="M125.4,1242L125.4,1242l-23.6-23.6c-1.1,1.1-2.1,2.2-3.1,3.4l20.2,20.2H125.4L125.4,1242z"/>
	<path class="st7" d="M153,1242L153,1242l23.6-23.6c-1.1-1.1-2.2-2.1-3.4-3.1l-20.2,20.2V1242z"/>
</g>
<circle class="st5" cx="-264.1" cy="1250.8" r="54.9"/>
<path class="st7" d="M-209.2,1250.8c0-23.6-14.9-43.7-35.8-51.5v102.9C-224.1,1294.5-209.2,1274.4-209.2,1250.8z"/>
<path class="st6" d="M-319,1250.8c0,23.6,14.9,43.7,35.8,51.5v-102.9C-304.1,1207-319,1227.2-319,1250.8z"/>
<path class="st8" d="M-290.5,1835.1h-50c-1.5,0-2.7-1.2-2.7-2.7v-98.1c0-1.5,1.2-2.7,2.7-2.7h50V1835.1z"/>
<rect x="-290.5" y="1731.5" class="st9" width="52.7" height="103.6"/>
<path class="st10" d="M-187.8,1835.1h-50v-103.6h50c1.5,0,2.7,1.2,2.7,2.7v98.1C-185,1833.8-186.3,1835.1-187.8,1835.1z"/>
<path class="st10" d="M1001.5,1830H849.3c-1.5,0-2.7-1.2-2.7-2.7v-97.8c0-1.5,1.2-2.7,2.7-2.7h152.1c1.5,0,2.7,1.2,2.7,2.7v97.8
	C1004.2,1828.8,1003,1830,1001.5,1830z"/>
<path class="st11" d="M903.7,1726.7h-54.3c-1.5,0-2.7,1.2-2.7,2.7v97.8c0,1.5,1.2,2.7,2.7,2.7h54.3V1726.7L903.7,1726.7z"/>
<circle class="st12" cx="903.7" cy="1778.4" r="24.4"/>
<path class="st10" d="M911.9,1770.2v10.9c0,4.5-3.7,8.1-8.2,8.1c-4.5,0-8.2-3.7-8.2-8.1v-10.9H911.9 M914.6,1764.8h-21.7
	c-1.5,0-2.7,1.2-2.7,2.7v13.6c0,7.5,6.1,13.6,13.6,13.6c7.5,0,13.6-6.1,13.6-13.6v-13.6C917.3,1766,916.1,1764.8,914.6,1764.8
	L914.6,1764.8z"/>
<path class="st9" d="M911.9,1770.2v10.9c0,4.5-3.7,8.1-8.2,8.1c-4.5,0-8.2-3.7-8.2-8.1v-10.9H911.9"/>
<g>
	<circle class="st12" cx="892.8" cy="1767.5" r="1.4"/>
	<circle class="st12" cx="914.6" cy="1767.5" r="1.4"/>
	<circle class="st12" cx="892.8" cy="1778.4" r="1.4"/>
	<circle class="st12" cx="914.6" cy="1778.4" r="1.4"/>
	<circle class="st12" cx="903.7" cy="1767.5" r="1.4"/>
	<circle class="st12" cx="911.8" cy="1788.4" r="1.4"/>
	<circle class="st12" cx="895.7" cy="1788.4" r="1.4"/>
</g>
<g>
	<path class="st8" d="M905.5,1777.7v2.3c0,1-0.8,1.8-1.8,1.8c-1,0-1.8-0.8-1.8-1.8v-2.3H905.5"/>
	<path class="st8" d="M905.5,1772.1v2.3c0,1-0.8,1.8-1.8,1.8c-1,0-1.8-0.8-1.8-1.8v-2.3H905.5"/>
	<path class="st8" d="M905.5,1783.3v2.3c0,1-0.8,1.8-1.8,1.8c-1,0-1.8-0.8-1.8-1.8v-2.3H905.5"/>
	<path class="st8" d="M910.2,1777.7v2.3c0,1-0.8,1.8-1.8,1.8c-1,0-1.8-0.8-1.8-1.8v-2.3H910.2"/>
	<path class="st8" d="M900.7,1777.7v2.3c0,1-0.8,1.8-1.8,1.8c-1,0-1.8-0.8-1.8-1.8v-2.3H900.7"/>
</g>
<path class="st13" d="M468.5,1833.3h147.4c1.5,0,2.6-1.2,2.6-2.6v-94.8c0-1.5-1.2-2.6-2.6-2.6H468.5c-1.5,0-2.6,1.2-2.6,2.6v94.8
	C465.9,1832.1,467.1,1833.3,468.5,1833.3z"/>
<rect x="465.9" y="1754.3" class="st14" width="152.7" height="57.9"/>
<path class="st13" d="M530.4,1783.3l2.2-10c0.2-0.9-0.5-1.8-1.4-1.8h-1.6c-0.9,0-1.7,0.9-1.4,1.8L530.4,1783.3z"/>
<rect x="527.8" y="1778" class="st9" width="5.3" height="22.4"/>
<rect x="526.5" y="1775.4" class="st15" width="7.9" height="2.6"/>
<g>
	<rect x="521.2" y="1783.3" class="st13" width="13.2" height="2.6"/>
	<polygon class="st13" points="534.4,1793.8 526.5,1791.2 526.5,1788.5 534.4,1791.2 	"/>
	<path class="st13" d="M490.9,1783.3l2.2-10c0.2-0.9-0.5-1.8-1.4-1.8h-1.6c-0.9,0-1.7,0.9-1.4,1.8L490.9,1783.3z"/>
</g>
<path class="st9" d="M500.1,1775.4c-1.5,0-2.6,1.2-2.6,2.6v17.1c0,3.2,3,9.2,13.2,9.2c10.2,0,13.2-6,13.2-9.2V1778
	c0-1.5-1.2-2.6-2.6-2.6H500.1z"/>
<g>
	<path class="st13" d="M510.7,1788.5h-13.2V1778c0-1.5,1.2-2.6,2.6-2.6h10.5V1788.5z"/>
	<path class="st13" d="M510.7,1788.5h13.2v6.6c0,3.6-2.9,6.6-6.6,6.6l0,0c-3.6,0-6.6-2.9-6.6-6.6V1788.5z"/>
</g>
<path class="st15" d="M497.5,1788.5h13.2v6.6c0,3.6-2.9,6.6-6.6,6.6l0,0c-3.6,0-6.6-2.9-6.6-6.6V1788.5z"/>
<g>
	<path class="st13" d="M508,1800.3v-11.8h-2.6v13C506.4,1801.4,507.3,1800.9,508,1800.3z"/>
	<path class="st13" d="M502.8,1801.6v-13h-2.6v11.8C500.9,1800.9,501.8,1801.4,502.8,1801.6z"/>
</g>
<rect x="500.1" y="1783.3" class="st16" width="7.9" height="2.6"/>
<g>
	<rect x="500.1" y="1778" class="st15" width="7.9" height="2.6"/>
	<rect x="501.4" y="1779.6" class="st15" width="5.3" height="4.8"/>
</g>
<rect x="488.3" y="1778" class="st9" width="5.3" height="22.4"/>
<g>
	<rect x="487" y="1799.1" class="st15" width="7.9" height="2.6"/>
	<rect x="487" y="1775.4" class="st15" width="7.9" height="2.6"/>
</g>
<rect x="485.7" y="1801.7" class="st17" width="10.5" height="2.6"/>
<rect x="527.8" y="1799.1" class="st15" width="7.9" height="2.6"/>
<rect x="525.1" y="1801.7" class="st17" width="10.5" height="2.6"/>
<rect x="502.8" y="1772.7" class="st15" width="15.8" height="2.6"/>
<rect x="509.3" y="1764.8" class="st16" width="2.6" height="7.9"/>
<g>
	<path class="st9" d="M508,1768.8c-2.2,0-3.9-1.8-3.9-3.9c0-2.2,1.8-3.9,3.9-3.9c2.2,0,3.9,1.8,3.9,3.9
		C512,1767,510.2,1768.8,508,1768.8z M508,1763.5c-0.7,0-1.3,0.6-1.3,1.3c0,0.7,0.6,1.3,1.3,1.3c0.7,0,1.3-0.6,1.3-1.3
		C509.3,1764.1,508.8,1763.5,508,1763.5z"/>
	<path class="st9" d="M513.3,1768.8c-2.2,0-3.9-1.8-3.9-3.9c0-2.2,1.8-3.9,3.9-3.9c2.2,0,3.9,1.8,3.9,3.9
		C517.2,1767,515.5,1768.8,513.3,1768.8z M513.3,1763.5c-0.7,0-1.3,0.6-1.3,1.3c0,0.7,0.6,1.3,1.3,1.3c0.7,0,1.3-0.6,1.3-1.3
		C514.6,1764.1,514,1763.5,513.3,1763.5z"/>
	<path class="st9" d="M518.6,1771.4c-2.2,0-3.9-1.8-3.9-3.9c0-2.2,1.8-3.9,3.9-3.9c2.2,0,3.9,1.8,3.9,3.9S520.7,1771.4,518.6,1771.4
		z M518.6,1766.2c-0.7,0-1.3,0.6-1.3,1.3s0.6,1.3,1.3,1.3c0.7,0,1.3-0.6,1.3-1.3S519.3,1766.2,518.6,1766.2z"/>
	<path class="st9" d="M502.8,1771.4c-2.2,0-3.9-1.8-3.9-3.9c0-2.2,1.8-3.9,3.9-3.9c2.2,0,3.9,1.8,3.9,3.9S504.9,1771.4,502.8,1771.4
		z M502.8,1766.2c-0.7,0-1.3,0.6-1.3,1.3s0.6,1.3,1.3,1.3c0.7,0,1.3-0.6,1.3-1.3S503.5,1766.2,502.8,1766.2z"/>
</g>
<path class="st15" d="M518.6,1793.8v1.3c0,0.7-0.6,1.3-1.3,1.3c-0.7,0-1.3-0.6-1.3-1.3v-1.3H518.6 M521.2,1791.2h-7.9v3.9
	c0,2.2,1.8,3.9,3.9,3.9c2.2,0,3.9-1.8,3.9-3.9V1791.2L521.2,1791.2z"/>
<path class="st18" d="M517.2,1785.9L517.2,1785.9c-1.5,0-2.6-1.2-2.6-2.6v-2.6c0-1.5,1.2-2.6,2.6-2.6l0,0c1.5,0,2.6,1.2,2.6,2.6v2.6
	C519.9,1784.7,518.7,1785.9,517.2,1785.9z"/>
<circle class="st17" cx="510.7" cy="1788.5" r="3.9"/>
<rect x="509.3" y="1759.6" class="st15" width="2.6" height="7.9"/>
<path class="st13" d="M502.8,1772.7l-2.6-2.6l1.5-1.5c2.4-2.4,5.6-3.7,9-3.7l0,0c3.4,0,6.6,1.3,9,3.7l1.5,1.5l-2.6,2.6H502.8z"/>
<g>
	<circle class="st14" cx="510.7" cy="1770.1" r="1.3"/>
	<circle class="st14" cx="505.4" cy="1770.1" r="1.3"/>
	<circle class="st14" cx="515.9" cy="1770.1" r="1.3"/>
</g>
<g>
	<rect x="487" y="1783.3" class="st13" width="13.2" height="2.6"/>
	<polygon class="st13" points="487,1793.8 494.9,1791.2 494.9,1788.5 487,1791.2 	"/>
</g>
<path class="st8" d="M213.4,1827.7H64.2c-1.5,0-2.7-1.2-2.7-2.7v-95.9c0-1.5,1.2-2.7,2.7-2.7h149.1c1.5,0,2.7,1.2,2.7,2.7v95.9
	C216,1826.5,214.8,1827.7,213.4,1827.7z"/>
<path class="st9" d="M216,1729.2c0-1.5-1.2-2.7-2.7-2.7h-11.9l-49.3,32.3v-32.3h-26.6v32.3l-49.3-32.3H64.2c-1.5,0-2.7,1.2-2.7,2.7
	v6.9l42.3,27.7H61.6v26.6h42.3l-42.3,27.7v6.9c0,1.5,1.2,2.7,2.7,2.7h11.9l49.3-32.3v32.3h26.6v-32.3l49.3,32.3h11.9
	c1.5,0,2.7-1.2,2.7-2.7v-6.9l-42.3-27.7H216v-26.6h-42.3l42.3-27.7V1729.2z"/>
<g>
	<polygon class="st10" points="216,1769.2 146.8,1769.2 146.8,1726.5 130.8,1726.5 130.8,1769.2 61.6,1769.2 61.6,1785.1 
		130.8,1785.1 130.8,1827.7 146.8,1827.7 146.8,1785.1 216,1785.1 	"/>
	<path class="st10" d="M115.5,1790.5l-53.9,35c0.2,1.3,1.2,2.3,2.6,2.3h3.7l57.4-37.3L115.5,1790.5L115.5,1790.5z"/>
	<path class="st10" d="M166.1,1790.5h-9.8l57.3,37.2c1.3-0.1,2.4-1.2,2.4-2.6v-2.2L166.1,1790.5z"/>
	<path class="st10" d="M61.6,1732.1l48.8,31.7h9.8l-57-37c-0.9,0.4-1.6,1.3-1.6,2.4V1732.1z"/>
	<path class="st10" d="M161.9,1763.8l54-35.1c-0.2-1.2-1.3-2.2-2.6-2.2h-3.8l-57.4,37.3H161.9z"/>
</g>
<path class="st19" d="M1366,1761.8h-150.9v-30.3c0-1.4,1.2-2.6,2.6-2.6h145.7c1.4,0,2.6,1.2,2.6,2.6V1761.8L1366,1761.8z"/>
<path class="st11" d="M1363.4,1827.7h-145.7c-1.4,0-2.6-1.2-2.6-2.6v-30.3H1366v30.3C1366,1826.5,1364.9,1827.7,1363.4,1827.7z"/>
<rect x="1215.2" y="1761.8" class="st9" width="150.9" height="32.9"/>
<g>
	<path class="st10" d="M1216.1,1827.1l59.8-47.4c0.9-0.7,0.9-2,0-2.7l-59.8-47.4c-0.6,0.5-1,1.2-1,2v93.6
		C1215.2,1825.9,1215.5,1826.6,1216.1,1827.1z"/>
	<path class="st10" d="M1293.2,1778.3c0-5.9,3.9-11,9.2-12.7c0.3-0.1,0.3-0.5-0.1-0.6c-1-0.1-2.1-0.1-3.2,0.1
		c-6.3,0.9-11.1,6.2-11.5,12.6c-0.4,7.7,5.7,14,13.3,14c0.4,0,0.9,0,1.3-0.1c0.3,0,0.4-0.5,0.1-0.6
		C1297.1,1789.2,1293.2,1784.2,1293.2,1778.3z"/>
	<path class="st10" d="M1304.6,1769.5l-1.8,5.3l-5.5,0c-0.7,0-1,0.9-0.4,1.3l4.5,3.3l-1.7,5.3c-0.2,0.7,0.6,1.3,1.1,0.8l4.5-3.2
		l4.5,3.2c0.6,0.4,1.4-0.1,1.1-0.8l-1.7-5.3l4.5-3.3c0.6-0.4,0.3-1.3-0.4-1.3l-5.5,0l-1.8-5.3
		C1305.7,1768.8,1304.8,1768.8,1304.6,1769.5z"/>
</g>
</svg>
