<svg xmlns="http://www.w3.org/2000/svg" viewBox="0 0 88.18 88.18"><defs><style>.cls-1{fill:#010101;}</style></defs><title>insta</title><g id="Calque_2" data-name="Calque 2"><g id="Calque_1-2" data-name="Calque 1"><path class="cls-1" d="M63.85,0H24.33A24.37,24.37,0,0,0,0,24.34V63.85A24.36,24.36,0,0,0,24.33,88.18H63.85A24.35,24.35,0,0,0,88.18,63.85V24.34A24.35,24.35,0,0,0,63.85,0ZM80.36,63.85A16.53,16.53,0,0,1,63.85,80.36H24.33A16.52,16.52,0,0,1,7.83,63.85V24.34A16.53,16.53,0,0,1,24.33,7.82H63.85A16.54,16.54,0,0,1,80.36,24.34V63.85Z"/><path class="cls-1" d="M44.09,21.37A22.72,22.72,0,1,0,66.82,44.09,22.74,22.74,0,0,0,44.09,21.37Zm0,37.62A14.9,14.9,0,1,1,59,44.09,14.92,14.92,0,0,1,44.09,59Z"/><path class="cls-1" d="M67.77,14.74a5.74,5.74,0,1,0,4.06,1.68A5.74,5.74,0,0,0,67.77,14.74Z"/></g></g></svg>