<svg xmlns="http://www.w3.org/2000/svg" viewBox="0 0 200.69 232.33"><defs><style>.cls-1{fill:#eda544;}.cls-2{fill:#eda542;}.cls-3{fill:#fff;}</style></defs><title>interpretation</title><g id="Calque_2" data-name="Calque 2"><g id="Calque_1-2" data-name="Calque 1"><path class="cls-1" d="M63.39,132.52A32.54,32.54,0,1,0,30.86,100,32.57,32.57,0,0,0,63.39,132.52Z"/><path class="cls-1" d="M107.06,148.29l-.06,0c-4.23-1-17.21-2.85-17.21-2.85a2.88,2.88,0,0,0-3.55,1.77L66.71,200.77a3.53,3.53,0,0,1-6.63,0L40.56,147.19a2.9,2.9,0,0,0-2.71-1.9c-.28,0-13.62,1.87-18.06,3C7.65,151.29,0,163.22,0,175.65v44.59a12.09,12.09,0,0,0,12.1,12.09H114.68a12.09,12.09,0,0,0,12.1-12.09V175.51a28.62,28.62,0,0,0-19.72-27.22Z"/><path class="cls-1" d="M70.76,144.4a4.15,4.15,0,0,0-3.07-1.28h-8.6A4.15,4.15,0,0,0,56,144.4a4,4,0,0,0-.52,4.7L60.09,156l-2.15,18.14,4.24,11.28a1.29,1.29,0,0,0,2.42,0l4.24-11.28L66.69,156l4.6-6.93A4,4,0,0,0,70.76,144.4Z"/><path class="cls-2" d="M162.28,1.52a3.84,3.84,0,0,0-2.41,7.29h0a47.92,47.92,0,0,1,28.35,24.48,46.34,46.34,0,0,1,2,36.22c-5.36,15-16.83,26.21-31.47,30.73a3.66,3.66,0,0,0-.46.18l-.63.18-.52.15-42.13,12,4.65-13.92a3.82,3.82,0,0,0-1.52-4.42A48,48,0,0,1,134,7.58,3.84,3.84,0,1,0,132.28.1a55.63,55.63,0,0,0-20.78,99l-6,18.11a3.85,3.85,0,0,0,.86,3.87,3.84,3.84,0,0,0,3.83,1l49.07-14,.6-.16,1.22-.35a5.12,5.12,0,0,0,.65-.25c16.67-5.38,29.69-18.2,35.79-35.29a54,54,0,0,0-2.35-42.17A55.48,55.48,0,0,0,162.28,1.52Z"/><path class="cls-1" d="M171,44.38H150.11l-3.4-14.76H118a3.4,3.4,0,0,0-3.39,3.4V62.49A3.39,3.39,0,0,0,118,65.88H138.9l3.4,14.76H171a3.4,3.4,0,0,0,3.4-3.39V47.78A3.4,3.4,0,0,0,171,44.38ZM118.55,62V33.55h25L150.14,62Zm24.38,3.92h7.37l-5.53,8Zm27.53,10.84H147.6l4.24-6.15.64,1.05a26,26,0,0,0,6.19-5.28l5,5.06,2.06-2L160.43,64a26.57,26.57,0,0,0,3.68-7.95h3.38V53.2h-7.15V51.48h-2.88V53.2h-5.32L151,48.31h19.44V76.72ZM155.07,65.88h0l-1-4.2,2.53,2.58a22.69,22.69,0,0,1-1.72,1.86l.16-.23Zm0-7.36-1.35,1.33-.87-3.78h8.3a24.53,24.53,0,0,1-2.75,5.84Z"/><path class="cls-2" d="M125.75,57.58a1.53,1.53,0,0,0,1.4-.94l2-4.85h7.58l2.07,4.86a1.52,1.52,0,1,0,2.79-1.19l-2.46-5.77v0l-4.86-11.4a1.52,1.52,0,0,0-1.4-.92h0a1.5,1.5,0,0,0-1.39.94l-4.73,11.39h0l-2.4,5.79"/><polygon class="cls-3" points="132.9 42.78 135.44 48.76 130.42 48.76 132.9 42.78"/></g></g></svg>