<svg xmlns="http://www.w3.org/2000/svg" viewBox="0 0 122.97 123.15"><defs><style>.cls-1{fill:#eda543;}</style></defs><title>phone</title><g id="Calque_2" data-name="Calque 2"><g id="Calque_1-2" data-name="Calque 1"><path class="cls-1" d="M97.24,76.28a12.15,12.15,0,0,0-8.79-4,12.51,12.51,0,0,0-8.89,4l-8.21,8.19c-.68-.37-1.35-.71-2-1-.94-.47-1.82-.91-2.58-1.38A89.45,89.45,0,0,1,45.38,62.54a52.42,52.42,0,0,1-7-11.08c2.13-2,4.1-4,6-5.92.72-.73,1.45-1.48,2.18-2.21,5.46-5.46,5.46-12.53,0-18l-7.1-7.09c-.8-.81-1.63-1.64-2.41-2.47-1.56-1.61-3.2-3.28-4.89-4.84a12.33,12.33,0,0,0-8.71-3.82,12.74,12.74,0,0,0-8.83,3.82l-.06.06L5.75,19.91A19,19,0,0,0,.11,32c-.63,7.59,1.61,14.65,3.32,19.28,4.21,11.36,10.5,21.89,19.89,33.17A122.43,122.43,0,0,0,64,116.34c6,2.83,14,6.18,22.88,6.75.54,0,1.11.06,1.63.06a19.58,19.58,0,0,0,15-6.45s.08-.08.1-.13a60.54,60.54,0,0,1,4.55-4.7c1.12-1.07,2.26-2.19,3.38-3.36a12.92,12.92,0,0,0,3.93-9,12.46,12.46,0,0,0-4-8.91Zm9.3,27.37s0,0,0,0c-1,1.09-2.05,2.08-3.17,3.17a69.12,69.12,0,0,0-5,5.2,12.5,12.5,0,0,1-9.77,4.13c-.39,0-.81,0-1.2,0-7.71-.49-14.89-3.51-20.27-6.08A115.32,115.32,0,0,1,28.75,80C19.89,69.32,14,59.44,10,48.84,7.62,42.37,6.73,37.32,7.12,32.57a12,12,0,0,1,3.59-7.72L19.57,16a5.92,5.92,0,0,1,3.95-1.85A5.57,5.57,0,0,1,27.32,16l.08.08c1.58,1.48,3.09,3,4.68,4.65.8.83,1.63,1.66,2.47,2.52l7.09,7.1c2.76,2.75,2.76,5.3,0,8.05-.75.76-1.48,1.51-2.23,2.24-2.19,2.23-4.27,4.31-6.53,6.34a.8.8,0,0,0-.13.13A5.31,5.31,0,0,0,31.4,53c0,.08.05.16.08.23a56.49,56.49,0,0,0,8.39,13.7l0,0A95.4,95.4,0,0,0,63,87.93c1.07.67,2.16,1.22,3.2,1.74s1.82.91,2.57,1.38l.31.18a5.32,5.32,0,0,0,6.53-1.14l8.88-8.89a5.87,5.87,0,0,1,3.93-2,5.26,5.26,0,0,1,3.74,1.9l0,0,14.32,14.32C109.19,98.17,109.19,100.9,106.54,103.65Z"/><path class="cls-1" d="M66.46,29.29A33.45,33.45,0,0,1,93.7,56.53a3.49,3.49,0,0,0,3.46,2.91,4.16,4.16,0,0,0,.6,0,3.51,3.51,0,0,0,2.88-4,40.42,40.42,0,0,0-33-33,3.53,3.53,0,0,0-4.05,2.86A3.46,3.46,0,0,0,66.46,29.29Z"/><path class="cls-1" d="M122.91,54.32A66.59,66.59,0,0,0,68.64.05,3.51,3.51,0,0,0,67.5,7,59.48,59.48,0,0,1,116,55.47a3.5,3.5,0,0,0,3.46,2.91,4.07,4.07,0,0,0,.6-.06A3.43,3.43,0,0,0,122.91,54.32Z"/></g></g></svg>