<svg xmlns="http://www.w3.org/2000/svg" viewBox="0 0 157.57 103.24"><defs><style>.cls-1{fill:#de5b5d;}.cls-2{fill:#80ad52;}.cls-3{fill:#fae171;}.cls-4{fill:#f5f6f6;}.cls-5{fill:#424b96;}</style></defs><title>portugais</title><g id="Calque_2" data-name="Calque 2"><g id="Calque_1-2" data-name="Calque 1"><path class="cls-1" d="M154.85,103.24H2.72A2.72,2.72,0,0,1,0,100.52V2.72A2.72,2.72,0,0,1,2.72,0H154.85a2.72,2.72,0,0,1,2.72,2.72v97.8A2.72,2.72,0,0,1,154.85,103.24Z"/><path class="cls-2" d="M57.05,0H2.72A2.72,2.72,0,0,0,0,2.72v97.8a2.72,2.72,0,0,0,2.72,2.72H57.05V0Z"/><path class="cls-3" d="M57.07,27.19A24.43,24.43,0,1,1,32.64,51.62,24.43,24.43,0,0,1,57.07,27.19Z"/><path class="cls-1" d="M65.22,43.47V54.33a8.15,8.15,0,1,1-16.3,0V43.47h16.3M67.94,38H46.21a2.72,2.72,0,0,0-2.72,2.72V54.33a13.59,13.59,0,1,0,27.17,0V40.75A2.72,2.72,0,0,0,67.94,38Z"/><path class="cls-4" d="M65.22,43.47V54.33a8.15,8.15,0,1,1-16.3,0V43.47h16.3"/><circle class="cls-3" cx="46.18" cy="40.75" r="1.36"/><circle class="cls-3" cx="67.92" cy="40.75" r="1.36"/><path class="cls-3" d="M46.18,50.26a1.36,1.36,0,1,1-1.35,1.36A1.36,1.36,0,0,1,46.18,50.26Z"/><path class="cls-3" d="M67.92,50.26a1.36,1.36,0,1,1-1.36,1.36A1.36,1.36,0,0,1,67.92,50.26Z"/><path class="cls-3" d="M57.05,39.39a1.36,1.36,0,1,1-1.36,1.36A1.36,1.36,0,0,1,57.05,39.39Z"/><path class="cls-3" d="M65.21,60.28a1.36,1.36,0,1,1-1.36,1.36A1.36,1.36,0,0,1,65.21,60.28Z"/><path class="cls-3" d="M49.06,60.28a1.36,1.36,0,1,1-1.36,1.36A1.35,1.35,0,0,1,49.06,60.28Z"/><path class="cls-5" d="M58.83,50.93v2.34a1.76,1.76,0,0,1-3.51,0V50.93h3.51"/><path class="cls-5" d="M58.83,45.38v2.34a1.76,1.76,0,1,1-3.51,0V45.38h3.51"/><path class="cls-5" d="M58.83,56.53v2.34a1.76,1.76,0,1,1-3.51,0V56.53h3.51"/><path class="cls-5" d="M63.55,50.93v2.34a1.76,1.76,0,0,1-3.51,0V50.93h3.51"/><path class="cls-5" d="M54.1,50.93v2.34a1.76,1.76,0,0,1-3.51,0V50.93H54.1"/></g></g></svg>