<svg xmlns="http://www.w3.org/2000/svg" viewBox="0 0 106.3 86.35"><defs><style>.cls-1{fill:#040304;}</style></defs><title>tw</title><g id="Calque_2" data-name="Calque 2"><g id="Calque_1-2" data-name="Calque 1"><path class="cls-1" d="M106.3,10.22a43.48,43.48,0,0,1-12.52,3.43,21.94,21.94,0,0,0,9.59-12.06,43.9,43.9,0,0,1-13.86,5.3A21.83,21.83,0,0,0,52.35,26.77,61.9,61.9,0,0,1,7.41,4a21.82,21.82,0,0,0,6.75,29.1,21.84,21.84,0,0,1-9.88-2.73v.27A21.82,21.82,0,0,0,21.77,52a22.22,22.22,0,0,1-5.75.77,20.51,20.51,0,0,1-4.1-.41A21.81,21.81,0,0,0,32.28,67.52,43.77,43.77,0,0,1,5.2,76.84a47,47,0,0,1-5.2-.3,61.7,61.7,0,0,0,33.43,9.81c40.11,0,62-33.23,62-62l-.08-2.83A43.27,43.27,0,0,0,106.3,10.22Z"/></g></g></svg>