<?xml version="1.0" encoding="UTF-8"?>
<svg width="13px" height="10px" viewBox="0 0 13 10" version="1.1" xmlns="http://www.w3.org/2000/svg" xmlns:xlink="http://www.w3.org/1999/xlink">
    <!-- Generator: Sketch 46.2 (44496) - http://www.bohemiancoding.com/sketch -->
    <title>icons/menu/white</title>
    <desc>Created with Sketch.</desc>
    <defs></defs>
    <g id="Maquette" stroke="none" stroke-width="1" fill="none" fill-rule="evenodd">
        <g id="services---Iphone-5-320x568" transform="translate(-273.000000, -363.000000)" fill="#333333">
            <g id="icons/menu/white" transform="translate(273.000000, 363.000000)">
                <g id="menu">
                    <path d="M11.7419355,0 L1.25806452,0 C0.566129032,0 0,0.5625 0,1.25 C0,1.9375 0.566129032,2.5 1.25806452,2.5 L11.7419355,2.5 C12.433871,2.5 13,1.9375 13,1.25 C13,0.5625 12.433871,0 11.7419355,0 Z" id="Shape" fill-rule="nonzero"></path>
                    <path d="M11.7419355,3.75 L1.25806452,3.75 C0.566129032,3.75 0,4.3125 0,5 C0,5.6875 0.566129032,6.25 1.25806452,6.25 L11.7419355,6.25 C12.433871,6.25 13,5.6875 13,5 C13,4.3125 12.433871,3.75 11.7419355,3.75 Z" id="Shape" fill-rule="nonzero"></path>
                    <path d="M11.7419355,7.5 L1.25806452,7.5 C0.566129032,7.5 0,8.0625 0,8.75 C0,9.4375 0.566129032,10 1.25806452,10 L11.7419355,10 C12.433871,10 13,9.4375 13,8.75 C13,8.0625 12.433871,7.5 11.7419355,7.5 Z" id="Shape" fill-rule="nonzero"></path>
                </g>
            </g>
        </g>
    </g>
</svg>